<svg width="1351" height="728" viewBox="0 0 1351 728" fill="none" xmlns="http://www.w3.org/2000/svg">
<path fill-rule="evenodd" clip-rule="evenodd" d="M1 6.00002C1 3.2386 3.23858 1 6 1H1345C1347.76 1 1350 3.23858 1350 6V722C1350 724.761 1347.76 727 1345 727H6.00001C3.23858 727 1 724.761 1 722V6.00002Z" fill="#DDDDDD" stroke="#C2C2C2"/>
<path d="M731.435 302.383C744.561 302.383 755.211 291.733 755.211 278.607C755.211 265.48 744.561 254.83 731.435 254.83C718.308 254.83 707.658 265.48 707.658 278.607C707.658 291.733 718.308 302.383 731.435 302.383Z" fill="#B4B4B4"/>
<path d="M773.044 223.128H578.87C571.142 223.128 565 229.419 565 237.146V399.322C565 407.049 571.142 413.34 578.87 413.34H773.044C780.772 413.34 786.914 407.049 786.914 399.322V237.146C786.914 229.419 780.772 223.128 773.044 223.128ZM721.975 321.058C720.488 319.324 718.21 317.987 715.634 317.987C713.108 317.987 711.325 319.175 709.294 320.81L700.031 328.636C698.099 330.023 696.563 330.965 694.334 330.965C692.204 330.965 690.272 330.172 688.886 328.934C688.39 328.488 687.499 327.646 686.756 326.903L660.106 298.074C658.125 295.795 655.153 294.359 651.834 294.359C648.515 294.359 645.444 295.993 643.512 298.222L580.851 373.812V244.775C581.346 241.406 583.972 238.979 587.34 238.979H764.525C767.942 238.979 770.716 241.505 770.914 244.923L771.063 373.911L721.975 321.058Z" fill="#B4B4B4"/>
<path d="M604.477 445.86V460H601.057V445.86H604.477ZM621.298 448.72C622.672 448.72 623.752 449.147 624.538 450C625.325 450.84 625.718 452.013 625.718 453.52V460H622.318V453.92C622.318 453.213 622.125 452.667 621.738 452.28C621.365 451.88 620.852 451.68 620.198 451.68C619.518 451.68 618.978 451.893 618.578 452.32C618.192 452.733 617.998 453.32 617.998 454.08V460H614.578V453.92C614.578 453.213 614.392 452.667 614.018 452.28C613.645 451.88 613.132 451.68 612.478 451.68C611.798 451.68 611.258 451.887 610.858 452.3C610.458 452.713 610.258 453.307 610.258 454.08V460H606.838V448.84H610.258V450.74C610.552 450.113 610.998 449.62 611.598 449.26C612.212 448.9 612.925 448.72 613.738 448.72C614.592 448.72 615.345 448.92 615.998 449.32C616.652 449.707 617.145 450.267 617.478 451C617.865 450.307 618.392 449.753 619.058 449.34C619.738 448.927 620.485 448.72 621.298 448.72ZM632.231 448.7C633.084 448.7 633.817 448.893 634.431 449.28C635.044 449.667 635.497 450.193 635.791 450.86V448.84H639.191V460H635.791V457.98C635.497 458.647 635.044 459.173 634.431 459.56C633.817 459.947 633.084 460.14 632.231 460.14C631.311 460.14 630.484 459.913 629.751 459.46C629.031 458.993 628.457 458.327 628.031 457.46C627.617 456.593 627.411 455.58 627.411 454.42C627.411 453.247 627.617 452.233 628.031 451.38C628.457 450.513 629.031 449.853 629.751 449.4C630.484 448.933 631.311 448.7 632.231 448.7ZM633.331 451.7C632.597 451.7 632.004 451.94 631.551 452.42C631.111 452.9 630.891 453.567 630.891 454.42C630.891 455.273 631.111 455.94 631.551 456.42C632.004 456.9 632.597 457.14 633.331 457.14C634.051 457.14 634.637 456.893 635.091 456.4C635.557 455.907 635.791 455.247 635.791 454.42C635.791 453.58 635.557 452.92 635.091 452.44C634.637 451.947 634.051 451.7 633.331 451.7ZM645.785 448.7C646.639 448.7 647.372 448.893 647.985 449.28C648.599 449.667 649.052 450.193 649.345 450.86V448.84H652.745V459.94C652.745 460.98 652.545 461.913 652.145 462.74C651.745 463.58 651.132 464.247 650.305 464.74C649.479 465.233 648.452 465.48 647.225 465.48C645.545 465.48 644.199 465.08 643.185 464.28C642.185 463.493 641.585 462.42 641.385 461.06H644.765C644.872 461.513 645.112 461.867 645.485 462.12C645.872 462.373 646.372 462.5 646.985 462.5C647.692 462.5 648.259 462.293 648.685 461.88C649.125 461.48 649.345 460.833 649.345 459.94V457.98C649.052 458.647 648.599 459.173 647.985 459.56C647.372 459.947 646.639 460.14 645.785 460.14C644.865 460.14 644.039 459.913 643.305 459.46C642.585 458.993 642.012 458.327 641.585 457.46C641.172 456.593 640.965 455.58 640.965 454.42C640.965 453.247 641.172 452.233 641.585 451.38C642.012 450.513 642.585 449.853 643.305 449.4C644.039 448.933 644.865 448.7 645.785 448.7ZM646.885 451.7C646.152 451.7 645.559 451.94 645.105 452.42C644.665 452.9 644.445 453.567 644.445 454.42C644.445 455.273 644.665 455.94 645.105 456.42C645.559 456.9 646.152 457.14 646.885 457.14C647.605 457.14 648.192 456.893 648.645 456.4C649.112 455.907 649.345 455.247 649.345 454.42C649.345 453.58 649.112 452.92 648.645 452.44C648.192 451.947 647.605 451.7 646.885 451.7ZM665.7 454.12C665.7 454.4 665.667 454.707 665.6 455.04H657.86C657.9 455.88 658.113 456.487 658.5 456.86C658.887 457.22 659.38 457.4 659.98 457.4C660.487 457.4 660.907 457.273 661.24 457.02C661.573 456.767 661.793 456.44 661.9 456.04H665.52C665.373 456.827 665.053 457.533 664.56 458.16C664.067 458.773 663.44 459.26 662.68 459.62C661.92 459.967 661.073 460.14 660.14 460.14C659.047 460.14 658.073 459.913 657.22 459.46C656.38 458.993 655.72 458.327 655.24 457.46C654.76 456.593 654.52 455.58 654.52 454.42C654.52 453.247 654.753 452.233 655.22 451.38C655.7 450.513 656.367 449.853 657.22 449.4C658.073 448.933 659.047 448.7 660.14 448.7C661.247 448.7 662.22 448.927 663.06 449.38C663.9 449.833 664.547 450.473 665 451.3C665.467 452.113 665.7 453.053 665.7 454.12ZM662.24 453.6C662.253 452.867 662.053 452.32 661.64 451.96C661.24 451.587 660.74 451.4 660.14 451.4C659.513 451.4 658.993 451.587 658.58 451.96C658.167 452.333 657.933 452.88 657.88 453.6H662.24ZM674.907 455.04V460H671.487V445.86H677.027C678.707 445.86 679.987 446.28 680.867 447.12C681.747 447.947 682.187 449.067 682.187 450.48C682.187 451.36 681.987 452.147 681.587 452.84C681.2 453.52 680.62 454.06 679.847 454.46C679.073 454.847 678.133 455.04 677.027 455.04H674.907ZM676.647 452.3C678.02 452.3 678.707 451.693 678.707 450.48C678.707 449.24 678.02 448.62 676.647 448.62H674.907V452.3H676.647ZM687.289 450.94C687.716 450.26 688.263 449.72 688.929 449.32C689.609 448.92 690.343 448.72 691.129 448.72V452.38H690.149C689.243 452.38 688.536 452.573 688.029 452.96C687.536 453.347 687.289 454 687.289 454.92V460H683.869V448.84H687.289V450.94ZM703.161 454.12C703.161 454.4 703.128 454.707 703.061 455.04H695.321C695.361 455.88 695.574 456.487 695.961 456.86C696.348 457.22 696.841 457.4 697.441 457.4C697.948 457.4 698.368 457.273 698.701 457.02C699.034 456.767 699.254 456.44 699.361 456.04H702.981C702.834 456.827 702.514 457.533 702.021 458.16C701.528 458.773 700.901 459.26 700.141 459.62C699.381 459.967 698.534 460.14 697.601 460.14C696.508 460.14 695.534 459.913 694.681 459.46C693.841 458.993 693.181 458.327 692.701 457.46C692.221 456.593 691.981 455.58 691.981 454.42C691.981 453.247 692.214 452.233 692.681 451.38C693.161 450.513 693.828 449.853 694.681 449.4C695.534 448.933 696.508 448.7 697.601 448.7C698.708 448.7 699.681 448.927 700.521 449.38C701.361 449.833 702.008 450.473 702.461 451.3C702.928 452.113 703.161 453.053 703.161 454.12ZM699.701 453.6C699.714 452.867 699.514 452.32 699.101 451.96C698.701 451.587 698.201 451.4 697.601 451.4C696.974 451.4 696.454 451.587 696.041 451.96C695.628 452.333 695.394 452.88 695.341 453.6H699.701ZM710.104 456.66L712.524 448.84H716.164L712.204 460H707.964L704.004 448.84H707.644L710.104 456.66ZM717.26 445.7C717.26 445.18 717.447 444.753 717.82 444.42C718.194 444.073 718.687 443.9 719.3 443.9C719.914 443.9 720.407 444.073 720.78 444.42C721.154 444.753 721.34 445.18 721.34 445.7C721.34 446.207 721.154 446.633 720.78 446.98C720.407 447.313 719.914 447.48 719.3 447.48C718.687 447.48 718.194 447.313 717.82 446.98C717.447 446.633 717.26 446.207 717.26 445.7ZM721 448.84V460H717.58V448.84H721ZM733.962 454.12C733.962 454.4 733.928 454.707 733.862 455.04H726.122C726.162 455.88 726.375 456.487 726.762 456.86C727.148 457.22 727.642 457.4 728.242 457.4C728.748 457.4 729.168 457.273 729.502 457.02C729.835 456.767 730.055 456.44 730.162 456.04H733.782C733.635 456.827 733.315 457.533 732.822 458.16C732.328 458.773 731.702 459.26 730.942 459.62C730.182 459.967 729.335 460.14 728.402 460.14C727.308 460.14 726.335 459.913 725.482 459.46C724.642 458.993 723.982 458.327 723.502 457.46C723.022 456.593 722.782 455.58 722.782 454.42C722.782 453.247 723.015 452.233 723.482 451.38C723.962 450.513 724.628 449.853 725.482 449.4C726.335 448.933 727.308 448.7 728.402 448.7C729.508 448.7 730.482 448.927 731.322 449.38C732.162 449.833 732.808 450.473 733.262 451.3C733.728 452.113 733.962 453.053 733.962 454.12ZM730.502 453.6C730.515 452.867 730.315 452.32 729.902 451.96C729.502 451.587 729.002 451.4 728.402 451.4C727.775 451.4 727.255 451.587 726.842 451.96C726.428 452.333 726.195 452.88 726.142 453.6H730.502ZM752.064 448.84L749.204 460H745.384L743.364 452.52L741.324 460H737.504L734.644 448.84H738.064L739.544 456.88L741.624 448.84H745.264L747.404 456.9L748.884 448.84H752.064Z" fill="#686868"/>
</svg>