<svg width="21" height="25" viewBox="0 0 21 25" fill="none" xmlns="http://www.w3.org/2000/svg">
<path fill-rule="evenodd" clip-rule="evenodd" d="M1.00092 15.1784V14.915C1.03682 14.1356 1.2689 13.3806 1.67322 12.7275C2.3462 11.9431 2.8069 10.9818 3.00697 9.94455C3.00697 9.14286 3.00697 8.32971 3.07204 7.52803C3.40818 3.66848 6.95402 1 10.4565 1H10.5433C14.0457 1 17.5915 3.66848 17.9385 7.52803C18.0035 8.32971 17.9385 9.14286 17.9927 9.94455C18.1954 10.9842 18.6557 11.9484 19.3265 12.739C19.7338 13.3862 19.9662 14.1386 19.9988 14.915V15.167C20.023 16.214 19.688 17.235 19.0554 18.0416C18.2196 18.9848 17.0853 19.5715 15.8674 19.6907C12.2961 20.1031 8.69276 20.1031 5.12145 19.6907C3.90492 19.5664 2.77232 18.9804 1.93347 18.0416C1.3107 17.2344 0.980146 16.2195 1.00092 15.1784Z" stroke="#474747" stroke-width="1.5" stroke-linecap="round" stroke-linejoin="round"/>
<path d="M8 23C8.51875 23.5457 9.28055 23.899 10.1167 23.9815C10.953 24.0639 11.7947 23.8689 12.4557 23.4395C12.6589 23.3125 12.8418 23.1648 13 23" stroke="#474747" stroke-width="1.5" stroke-linecap="round" stroke-linejoin="round"/>
</svg>
