<svg width="20" height="20" viewBox="0 0 20 20" fill="none" xmlns="http://www.w3.org/2000/svg">
<path d="M0.0853977 0.553977C-0.0753536 0.942235 -0.009161 1.27367 0.283974 1.5483L7.27668 8.55114V19.0909C7.27668 19.4886 7.46107 19.768 7.82985 19.929C7.95278 19.9763 8.07098 20 8.18445 20C8.43976 20 8.65252 19.91 8.82273 19.7301L12.4538 16.0938C12.6335 15.9138 12.7233 15.7008 12.7233 15.4545V8.55114L19.716 1.5483C20.0092 1.27367 20.0754 0.942235 19.9146 0.553977C19.7538 0.184659 19.4749 0 19.0777 0H0.922253C0.525101 0 0.246149 0.184659 0.0853977 0.553977Z" fill="black"/>
</svg>
