<svg width="256" height="188" viewBox="0 0 256 188" fill="none" xmlns="http://www.w3.org/2000/svg">
<path fill-rule="evenodd" clip-rule="evenodd" d="M1 6C1 3.23857 3.23858 1 6 1H250C252.761 1 255 3.23858 255 6V182C255 184.761 252.761 187 250 187H6C3.23857 187 1 184.761 1 182V6Z" fill="#DDDDDD" stroke="#C2C2C2"/>
<path d="M142.393 78.1687C145.754 78.1687 148.481 75.4418 148.481 72.0807C148.481 68.7197 145.754 65.9928 142.393 65.9928C139.032 65.9928 136.305 68.7197 136.305 72.0807C136.305 75.4418 139.032 78.1687 142.393 78.1687Z" fill="#B4B4B4"/>
<path d="M153.047 57.8755H103.329C101.35 57.8755 99.7773 59.4863 99.7773 61.4649V102.99C99.7773 104.968 101.35 106.579 103.329 106.579H153.047C155.025 106.579 156.598 104.968 156.598 102.99V61.4649C156.598 59.4863 155.025 57.8755 153.047 57.8755ZM139.97 82.9502C139.59 82.5063 139.006 82.1639 138.347 82.1639C137.7 82.1639 137.244 82.4683 136.724 82.8868L134.352 84.8908C133.857 85.2459 133.464 85.4869 132.893 85.4869C132.348 85.4869 131.853 85.284 131.498 84.9669C131.371 84.8527 131.143 84.6371 130.953 84.4469L124.129 77.0652C123.622 76.4818 122.861 76.114 122.011 76.114C121.161 76.114 120.375 76.5325 119.88 77.1033L103.836 96.4579V63.4181C103.963 62.5557 104.635 61.9342 105.497 61.9342H150.865C151.74 61.9342 152.451 62.581 152.501 63.4562L152.539 96.4832L139.97 82.9502Z" fill="#B4B4B4"/>
<path d="M56.977 120.86V135H53.557V120.86H56.977ZM73.7982 123.72C75.1715 123.72 76.2515 124.147 77.0382 125C77.8249 125.84 78.2182 127.013 78.2182 128.52V135H74.8182V128.92C74.8182 128.213 74.6249 127.667 74.2382 127.28C73.8649 126.88 73.3515 126.68 72.6982 126.68C72.0182 126.68 71.4782 126.893 71.0782 127.32C70.6915 127.733 70.4982 128.32 70.4982 129.08V135H67.0782V128.92C67.0782 128.213 66.8915 127.667 66.5182 127.28C66.1449 126.88 65.6315 126.68 64.9782 126.68C64.2982 126.68 63.7582 126.887 63.3582 127.3C62.9582 127.713 62.7582 128.307 62.7582 129.08V135H59.3382V123.84H62.7582V125.74C63.0515 125.113 63.4982 124.62 64.0982 124.26C64.7115 123.9 65.4249 123.72 66.2382 123.72C67.0915 123.72 67.8449 123.92 68.4982 124.32C69.1515 124.707 69.6449 125.267 69.9782 126C70.3649 125.307 70.8915 124.753 71.5582 124.34C72.2382 123.927 72.9849 123.72 73.7982 123.72ZM84.7305 123.7C85.5839 123.7 86.3172 123.893 86.9305 124.28C87.5439 124.667 87.9972 125.193 88.2905 125.86V123.84H91.6905V135H88.2905V132.98C87.9972 133.647 87.5439 134.173 86.9305 134.56C86.3172 134.947 85.5839 135.14 84.7305 135.14C83.8105 135.14 82.9839 134.913 82.2505 134.46C81.5305 133.993 80.9572 133.327 80.5305 132.46C80.1172 131.593 79.9105 130.58 79.9105 129.42C79.9105 128.247 80.1172 127.233 80.5305 126.38C80.9572 125.513 81.5305 124.853 82.2505 124.4C82.9839 123.933 83.8105 123.7 84.7305 123.7ZM85.8305 126.7C85.0972 126.7 84.5039 126.94 84.0505 127.42C83.6105 127.9 83.3905 128.567 83.3905 129.42C83.3905 130.273 83.6105 130.94 84.0505 131.42C84.5039 131.9 85.0972 132.14 85.8305 132.14C86.5505 132.14 87.1372 131.893 87.5905 131.4C88.0572 130.907 88.2905 130.247 88.2905 129.42C88.2905 128.58 88.0572 127.92 87.5905 127.44C87.1372 126.947 86.5505 126.7 85.8305 126.7ZM98.2852 123.7C99.1386 123.7 99.8719 123.893 100.485 124.28C101.099 124.667 101.552 125.193 101.845 125.86V123.84H105.245V134.94C105.245 135.98 105.045 136.913 104.645 137.74C104.245 138.58 103.632 139.247 102.805 139.74C101.979 140.233 100.952 140.48 99.7252 140.48C98.0452 140.48 96.6986 140.08 95.6852 139.28C94.6852 138.493 94.0852 137.42 93.8852 136.06H97.2652C97.3719 136.513 97.6119 136.867 97.9852 137.12C98.3719 137.373 98.8719 137.5 99.4852 137.5C100.192 137.5 100.759 137.293 101.185 136.88C101.625 136.48 101.845 135.833 101.845 134.94V132.98C101.552 133.647 101.099 134.173 100.485 134.56C99.8719 134.947 99.1386 135.14 98.2852 135.14C97.3652 135.14 96.5386 134.913 95.8052 134.46C95.0852 133.993 94.5119 133.327 94.0852 132.46C93.6719 131.593 93.4652 130.58 93.4652 129.42C93.4652 128.247 93.6719 127.233 94.0852 126.38C94.5119 125.513 95.0852 124.853 95.8052 124.4C96.5386 123.933 97.3652 123.7 98.2852 123.7ZM99.3852 126.7C98.6519 126.7 98.0586 126.94 97.6052 127.42C97.1652 127.9 96.9452 128.567 96.9452 129.42C96.9452 130.273 97.1652 130.94 97.6052 131.42C98.0586 131.9 98.6519 132.14 99.3852 132.14C100.105 132.14 100.692 131.893 101.145 131.4C101.612 130.907 101.845 130.247 101.845 129.42C101.845 128.58 101.612 127.92 101.145 127.44C100.692 126.947 100.105 126.7 99.3852 126.7ZM118.2 129.12C118.2 129.4 118.167 129.707 118.1 130.04H110.36C110.4 130.88 110.613 131.487 111 131.86C111.387 132.22 111.88 132.4 112.48 132.4C112.987 132.4 113.407 132.273 113.74 132.02C114.073 131.767 114.293 131.44 114.4 131.04H118.02C117.873 131.827 117.553 132.533 117.06 133.16C116.567 133.773 115.94 134.26 115.18 134.62C114.42 134.967 113.573 135.14 112.64 135.14C111.547 135.14 110.573 134.913 109.72 134.46C108.88 133.993 108.22 133.327 107.74 132.46C107.26 131.593 107.02 130.58 107.02 129.42C107.02 128.247 107.253 127.233 107.72 126.38C108.2 125.513 108.867 124.853 109.72 124.4C110.573 123.933 111.547 123.7 112.64 123.7C113.747 123.7 114.72 123.927 115.56 124.38C116.4 124.833 117.047 125.473 117.5 126.3C117.967 127.113 118.2 128.053 118.2 129.12ZM114.74 128.6C114.753 127.867 114.553 127.32 114.14 126.96C113.74 126.587 113.24 126.4 112.64 126.4C112.013 126.4 111.493 126.587 111.08 126.96C110.667 127.333 110.433 127.88 110.38 128.6H114.74ZM127.407 130.04V135H123.987V120.86H129.527C131.207 120.86 132.487 121.28 133.367 122.12C134.247 122.947 134.687 124.067 134.687 125.48C134.687 126.36 134.487 127.147 134.087 127.84C133.7 128.52 133.12 129.06 132.347 129.46C131.573 129.847 130.633 130.04 129.527 130.04H127.407ZM129.147 127.3C130.52 127.3 131.207 126.693 131.207 125.48C131.207 124.24 130.52 123.62 129.147 123.62H127.407V127.3H129.147ZM139.789 125.94C140.216 125.26 140.763 124.72 141.429 124.32C142.109 123.92 142.843 123.72 143.629 123.72V127.38H142.649C141.743 127.38 141.036 127.573 140.529 127.96C140.036 128.347 139.789 129 139.789 129.92V135H136.369V123.84H139.789V125.94ZM155.661 129.12C155.661 129.4 155.628 129.707 155.561 130.04H147.821C147.861 130.88 148.074 131.487 148.461 131.86C148.848 132.22 149.341 132.4 149.941 132.4C150.448 132.4 150.868 132.273 151.201 132.02C151.534 131.767 151.754 131.44 151.861 131.04H155.481C155.334 131.827 155.014 132.533 154.521 133.16C154.028 133.773 153.401 134.26 152.641 134.62C151.881 134.967 151.034 135.14 150.101 135.14C149.008 135.14 148.034 134.913 147.181 134.46C146.341 133.993 145.681 133.327 145.201 132.46C144.721 131.593 144.481 130.58 144.481 129.42C144.481 128.247 144.714 127.233 145.181 126.38C145.661 125.513 146.328 124.853 147.181 124.4C148.034 123.933 149.008 123.7 150.101 123.7C151.208 123.7 152.181 123.927 153.021 124.38C153.861 124.833 154.508 125.473 154.961 126.3C155.428 127.113 155.661 128.053 155.661 129.12ZM152.201 128.6C152.214 127.867 152.014 127.32 151.601 126.96C151.201 126.587 150.701 126.4 150.101 126.4C149.474 126.4 148.954 126.587 148.541 126.96C148.128 127.333 147.894 127.88 147.841 128.6H152.201ZM162.604 131.66L165.024 123.84H168.664L164.704 135H160.464L156.504 123.84H160.144L162.604 131.66ZM169.76 120.7C169.76 120.18 169.947 119.753 170.32 119.42C170.694 119.073 171.187 118.9 171.8 118.9C172.414 118.9 172.907 119.073 173.28 119.42C173.654 119.753 173.84 120.18 173.84 120.7C173.84 121.207 173.654 121.633 173.28 121.98C172.907 122.313 172.414 122.48 171.8 122.48C171.187 122.48 170.694 122.313 170.32 121.98C169.947 121.633 169.76 121.207 169.76 120.7ZM173.5 123.84V135H170.08V123.84H173.5ZM186.462 129.12C186.462 129.4 186.428 129.707 186.362 130.04H178.622C178.662 130.88 178.875 131.487 179.262 131.86C179.648 132.22 180.142 132.4 180.742 132.4C181.248 132.4 181.668 132.273 182.002 132.02C182.335 131.767 182.555 131.44 182.662 131.04H186.282C186.135 131.827 185.815 132.533 185.322 133.16C184.828 133.773 184.202 134.26 183.442 134.62C182.682 134.967 181.835 135.14 180.902 135.14C179.808 135.14 178.835 134.913 177.982 134.46C177.142 133.993 176.482 133.327 176.002 132.46C175.522 131.593 175.282 130.58 175.282 129.42C175.282 128.247 175.515 127.233 175.982 126.38C176.462 125.513 177.128 124.853 177.982 124.4C178.835 123.933 179.808 123.7 180.902 123.7C182.008 123.7 182.982 123.927 183.822 124.38C184.662 124.833 185.308 125.473 185.762 126.3C186.228 127.113 186.462 128.053 186.462 129.12ZM183.002 128.6C183.015 127.867 182.815 127.32 182.402 126.96C182.002 126.587 181.502 126.4 180.902 126.4C180.275 126.4 179.755 126.587 179.342 126.96C178.928 127.333 178.695 127.88 178.642 128.6H183.002ZM204.564 123.84L201.704 135H197.884L195.864 127.52L193.824 135H190.004L187.144 123.84H190.564L192.044 131.88L194.124 123.84H197.764L199.904 131.9L201.384 123.84H204.564Z" fill="#686868"/>
</svg>
