<svg width="14" height="18" viewBox="0 0 14 18" fill="none" xmlns="http://www.w3.org/2000/svg">
<path d="M13.1152 3.6216C13.0802 3.6216 13.019 3.6216 12.984 3.63035C12.4941 3.68283 12.0917 4.12897 12.0917 4.61885V7.68934C12.0917 7.93428 11.9955 8.20546 11.7505 8.20546H11.7418C11.4706 8.20546 11.1207 7.92553 11.1207 7.65435V2.69433C11.1207 2.1957 10.8232 1.75831 10.3334 1.70583C10.3246 1.70583 10.3596 1.70583 10.3509 1.70583C10.3159 1.70583 10.2371 1.69708 10.2109 1.69708C9.67728 1.69708 9.1874 2.13447 9.1874 2.66809V7.67184C9.1874 7.93428 8.96871 8.13548 8.70627 8.13548C8.44384 8.13548 8.21639 7.92553 8.21639 7.66309V0.997252C8.21639 0.498626 7.92772 0.0612348 7.43784 0.00874786C7.40285 0.00874786 7.33286 0 7.28913 0C6.75551 0 6.28312 0.437391 6.28312 0.971009V7.67184C6.28312 7.93428 6.05568 8.14423 5.79325 8.14423C5.53081 8.14423 5.31212 7.93428 5.31212 7.68059V2.69433C5.31212 2.1957 5.03219 1.74956 4.53356 1.68833C4.49857 1.68833 4.53356 1.67083 4.49857 1.67083C3.96495 1.67083 3.37885 2.12572 3.37885 2.65934V9.87629C3.37885 9.91128 3.44008 9.94628 3.44008 9.97252C3.39634 10.1825 3.24763 10.3224 3.04643 10.3224C2.94146 10.3224 2.85398 10.2874 2.7665 10.2L1.62928 9.11523C1.44558 8.93153 1.20064 8.8353 0.9557 8.8353C0.920709 8.8353 0.894465 8.8353 0.868222 8.8353C0.649526 8.8528 0.448326 8.94902 0.282117 9.11523C-0.0940391 9.49139 -0.0940391 10.095 0.282117 10.4711L4.36735 15.8598L4.47233 17.2245C4.48982 17.4344 4.66478 17.6094 4.87473 17.6094L12.013 17.6006C12.2142 17.6006 12.3891 17.4432 12.4154 17.242L12.4241 17.1632L12.5903 15.8161C12.5991 15.7636 12.6078 15.7111 12.634 15.6586C12.634 15.6499 12.5991 15.6499 12.5991 15.6411C13.6925 13.944 13.9987 11.1447 13.9987 8.10923V4.59261C14.025 4.05024 13.6488 3.6216 13.1152 3.6216Z" fill="#1E293B"/>
</svg>