<svg width="11" height="17" viewBox="0 0 11 17" fill="none" xmlns="http://www.w3.org/2000/svg">
<path d="M9.65625 0.1875H1.34375C1.02892 0.18786 0.72708 0.313087 0.504458 0.535708C0.281837 0.75833 0.15661 1.06017 0.15625 1.375V4.73956C0.156782 4.99643 0.240069 5.24629 0.393765 5.4521L1.9375 7.51044V15.625C1.93786 15.9398 2.06309 16.2417 2.28571 16.4643C2.50833 16.6869 2.81017 16.8121 3.125 16.8125H7.875C8.18983 16.8121 8.49167 16.6869 8.71429 16.4643C8.93691 16.2417 9.06214 15.9398 9.0625 15.625L9.06243 7.51037L10.6064 5.45203C10.76 5.2462 10.8432 4.99638 10.8437 4.73956V1.375C10.8434 1.06017 10.7182 0.75833 10.4955 0.535709C10.2729 0.313087 9.97108 0.18786 9.65625 0.1875ZM6.09375 10.2812C6.09375 10.4387 6.03119 10.5897 5.91985 10.7011C5.8085 10.8124 5.65747 10.875 5.5 10.875C5.34253 10.875 5.1915 10.8124 5.08016 10.7011C4.96881 10.5897 4.90625 10.4387 4.90625 10.2812V7.90625C4.90625 7.74878 4.96881 7.59775 5.08016 7.48641C5.1915 7.37506 5.34253 7.3125 5.5 7.3125C5.65747 7.3125 5.8085 7.37506 5.91985 7.48641C6.03119 7.59775 6.09375 7.74878 6.09375 7.90625V10.2812ZM1.34342 3.15625L1.34303 1.375H9.65625L9.65629 3.15625H1.34342Z" fill="#1E293B"/>
</svg>