<?xml version="1.0" encoding="utf-8"?>
<!-- Generator: Adobe Illustrator 26.1.0, SVG Export Plug-In . SVG Version: 6.00 Build 0)  -->
<svg version="1.1" id="Layer_1" xmlns="http://www.w3.org/2000/svg" xmlns:xlink="http://www.w3.org/1999/xlink" x="0px" y="0px"
	 viewBox="0 0 1558.5 890.4" style="enable-background:new 0 0 1558.5 890.4;" xml:space="preserve">
<style type="text/css">
	.st0{clip-path:url(#SVGID_00000110433483495870047080000010279957571181746366_);}
	.st1{fill:url(#SVGID_00000118371084636541514520000017138952278983947186_);}
	.st2{fill:url(#SVGID_00000097471259088400921880000008432847424372411069_);}
	.st3{fill:url(#SVGID_00000039830390270056240770000004588529346853119361_);}
	.st4{fill:url(#SVGID_00000005262121934558459070000010532618822546125969_);}
	.st5{fill:url(#SVGID_00000103945327133828324480000016625468053182596512_);}
	.st6{fill:url(#SVGID_00000169522024962228345460000013653218377747434373_);}
	.st7{fill:url(#SVGID_00000174562832933487579380000000534648992314318479_);}
	.st8{fill:url(#SVGID_00000001625336514879340930000001939082340099497900_);}
	.st9{fill:url(#SVGID_00000152949853075675275110000015448991281508586118_);}
	.st10{fill:url(#SVGID_00000156558270971766290490000009446776378897850784_);}
	.st11{fill:url(#SVGID_00000046302104329566888890000015926533276110424476_);}
	.st12{fill:url(#SVGID_00000042717104368326154950000001251878009465487032_);}
	.st13{fill:url(#SVGID_00000023251385859706939950000014586227147816526225_);}
	.st14{fill:url(#SVGID_00000021089485880701279960000000694142000077025980_);}
	.st15{fill:url(#SVGID_00000048471293516369630150000010672458758993114760_);}
	.st16{fill:#56AD47;}
	.st17{fill:#EE6C26;}
	.st18{fill:#FFFFFF;}
</style>
<g>
	<g>
		<defs>
			<path id="SVGID_1_" d="M1501,695.5c-8-17.4-17.3-34-27.8-49.7c-62.2-93.5-165.4-154.2-284.5-154.4
				c-139.1-0.2-263.3,82.1-329.1,203.1L1501,695.5z"/>
		</defs>
		<clipPath id="SVGID_00000178888379028083003900000016193583359952601505_">
			<use xlink:href="#SVGID_1_"  style="overflow:visible;"/>
		</clipPath>
		<g style="clip-path:url(#SVGID_00000178888379028083003900000016193583359952601505_);">
			
				<linearGradient id="SVGID_00000161620804267338327390000007480494912439748236_" gradientUnits="userSpaceOnUse" x1="1233.6927" y1="694.9914" x2="1328.4805" y2="694.9914">
				<stop  offset="0" style="stop-color:#EE6C26"/>
				<stop  offset="0.2517" style="stop-color:#EE7B32"/>
				<stop  offset="0.7667" style="stop-color:#EF9F56"/>
				<stop  offset="1" style="stop-color:#EFB26A"/>
			</linearGradient>
			<path style="fill:url(#SVGID_00000161620804267338327390000007480494912439748236_);" d="M1233.7,695.8h94.8v-1.6
				c-32.4,0-62.4-0.1-94.7-0.1C1233.7,694.2,1233.7,695.8,1233.7,695.8z"/>
			
				<linearGradient id="SVGID_00000180357751544821041560000014813453882313940906_" gradientUnits="userSpaceOnUse" x1="1037.386" y1="695.0332" x2="1133.6056" y2="695.0332">
				<stop  offset="0" style="stop-color:#EE6C26"/>
				<stop  offset="0.2517" style="stop-color:#EE7B32"/>
				<stop  offset="0.7667" style="stop-color:#EF9F56"/>
				<stop  offset="1" style="stop-color:#EFB26A"/>
			</linearGradient>
			<path style="fill:url(#SVGID_00000180357751544821041560000014813453882313940906_);" d="M1037.4,695.8h96l0-1.5
				c0,0,0.1-0.1,0.2-0.1h-96.2V695.8z"/>
			
				<linearGradient id="SVGID_00000051381220977247866320000000962098232014433921_" gradientUnits="userSpaceOnUse" x1="1035.6294" y1="629.0927" x2="1330.1584" y2="629.0927">
				<stop  offset="0" style="stop-color:#EE6C26"/>
				<stop  offset="0.2517" style="stop-color:#EE7B32"/>
				<stop  offset="0.7667" style="stop-color:#EF9F56"/>
				<stop  offset="1" style="stop-color:#EFB26A"/>
			</linearGradient>
			<path style="fill:url(#SVGID_00000051381220977247866320000000962098232014433921_);" d="M1328.3,638c-0.5-0.1-1.1-0.1-1.6-0.2
				c-0.3-0.4-0.3-3.2-0.5-4.1c-0.4-1.4-1.3-2.6-1.8-3.8c0-0.1,0-0.1,0.1-0.2h2.1c0-0.1,0.1-0.3,0.1-0.4c0.2-0.9-1-2.6-1.5-3.4
				c1-1.7,0.7-6.3,0.6-9c-0.4-0.3-0.5-0.3-1.1-0.3c-0.3,0.6-0.7,1.3-0.8,2c-0.1,0-0.1,0.1-0.2,0.1c-1.4-3.3-4.5-6.1-7.4-7.8
				c0-0.9,0-1.8-0.2-2.4c-0.2-0.2-0.3-0.2-0.7-0.3c-0.4,0.6-0.4,1.5-0.4,2.6c-2.3,2.6-6.3,3.9-7.3,7.8c-0.4-0.2-0.8-1.4-0.9-1.8
				c-0.2-0.1-0.4-0.2-0.6-0.3c-1.5,0.8-0.3,8.3,0,9.4c-0.4,0.6-1.8,2.5-1.4,3.5c0.3,0.4,1.5,0.3,2.1,0.2c0,0.1,0,0.2,0.1,0.3
				c-1.6,2.5-1.6,4.5-2.2,7.9c-0.5,0-1,0.1-1.5,0.1c-0.8,0.4-1.6,2.1-2,2.9v0.4c0.6,0.3,1.2,0.3,2.1,0.3c0,0.8,0,1.7,0.1,2.5
				c-2.8,0.1-5.7,0.1-8.5,0.2c-5.5,0-11-0.1-16.6-0.1c-4.9,0-9.9,0.1-14.8,0.1c-10.6,0-21.2,0.1-31.7-0.1c0-1.2,0-2.4,0.1-3.5
				c0.7-0.4,2.3-0.2,3.3-0.2c0.1-0.1,0.3-0.3,0.4-0.4c-0.2-1.2-1.1-1.8-1.5-2.9c-0.5-0.5-1.1-0.5-2.1-0.5c-0.1-1.4-0.3-2.7-0.4-4.1
				c-0.4-1.4-1.1-2.6-1.7-3.7v-0.3c0.7,0,1.3-0.1,2-0.1c0.6-1.5-1.2-2.6-1.4-3.6c0.2-0.6,0.5-1.1,0.7-1.7c0.4-1.3,0.1-6.7-0.2-7.6
				c-0.3-0.1-0.5-0.1-0.8-0.2c-0.4,0.4-0.8,1.3-0.9,2.1c0,0-0.1,0.1-0.2,0.1c-1.5-2.7-4.2-6.3-7-7.5c-0.4-0.6-0.5-1.4-0.5-2.6
				c-0.2-0.2-0.4-0.3-0.5-0.5c-0.2,0.1-0.4,0.3-0.5,0.4v2.1c-2.3,2.6-6.2,4.1-7.4,7.9c0,0-0.1,0.1-0.2,0.1c-0.3-0.6-0.5-1.2-0.8-1.8
				c-0.4-0.2-0.9-0.4-1.2,0.1c0,2.5,0,5-0.1,7.5c0.2,0.6,0.5,1.2,0.7,1.8c-0.7,0.4-1.5,2.2-1.5,3.3c0,0.1,0,0.1,0.1,0.2
				c0.5,0.2,1.4,0.2,2.1,0.2c-0.4,1.5-1.6,2.5-1.7,4.4c-1,0.5-5,0.3-6.2,0.1c0-0.1,0-0.2-0.1-0.3v-10.3c0.4-0.2,1.4-0.1,2-0.3
				c0.2-0.7,0.3-1.7,0.2-2.7c0.3-0.1,0.7-0.2,1-0.3c0.5-0.7,0.3-2.7,0.2-3.8c-1.1-0.6-4.8-0.2-6.4-0.2c0,0-0.1-0.1-0.2-0.1v-5.6
				c0.7-0.5,2.2-2.1,2.5-3c0.1-0.4-0.2-0.5-0.4-0.8c0.5-1.1,1.5-9.6-0.4-9.4c-0.3,0.7-0.7,1.2-0.8,2.1c-0.4-0.3-0.4-1-0.7-1.5
				c-0.8-1.4-1.7-2.8-2.5-4.2c-1.6-1.9-3.4-4.1-5.3-5.6c-1.3-1-2.5-2-3.8-3c-0.8-1.4,0.5-6.1-0.5-7.7h-1c-0.5-1.3,0.3-3.9-0.6-4.8
				c-0.6-0.1-1.2-0.1-1.8-0.2c0-1.4-0.9-1.6-1.1-2.5c-0.3-1.5,0.9-2.3,0.7-4c0.4-0.1,0.5-0.4,0.8-0.7c0-0.3-0.1-0.6-0.2-0.9
				c-0.5-0.2-0.6-0.5-1-0.8c-0.3,0.1-0.5,0.2-0.8,0.3c-0.2-0.3-0.3-0.7-0.5-0.9h-1.8c0,0.2,0,0.4-0.1,0.7c-0.8,0.3-1.6-0.2-2.1,1.1
				c0,0.1-0.1,0.1-0.2,0.2c0.2,0.5,0.4,0.9,0.9,1c-0.3,1.6,0.5,2.4,0.5,4.3c-0.5,0.6-1,1-1,2.2c-0.6,0.1-1.2,0.1-1.8,0.2
				c-0.6,1-0.5,2.9-0.5,4.6c-0.4,0.4-0.9,0.4-1.4,0.6c-0.5,0.6-0.1,6.1-0.2,7.3c-3.4,2.8-7.1,5.5-9.5,9.2c-1,1.5-1.6,3.3-2.6,5v0.2
				c-0.4-0.5-0.7-1.6-1-2.1h-0.5c-0.8,0.6-0.4,8.6,0.2,9.2c-0.2,0.5-0.3,0.4-0.4,1.1c0.8,0.9,1.6,1.8,2.4,2.7c0.6,1.4-0.1,4,0.2,5.6
				c-0.7,0.6-5.1,0.3-6.6,0.3v0.2c-0.4,0.6-0.2,2.8-0.1,3.6c0.3,0.2,0.7,0.2,1.1,0.3c0.1,0.8,0,2,0.2,2.7c0.4,0.2,1.3,0.2,1.9,0.2
				c0,3.5,0,7.1,0.1,10.6c-1.3,0.7-4.3,0.2-6,0.2c-0.4-0.8-1.7-3.9-1.8-4.5c0.7,0,1.3-0.1,2-0.1c0.4-1-0.6-3.1-1.3-3.5
				c0.2-0.6,0.4-1.2,0.6-1.8c0.3-1.4,0.1-6.6-0.2-7.6c-0.3-0.1-0.5-0.1-0.8-0.2c-0.4,0.5-0.9,1.3-0.9,2.2c-0.8-0.5-1.1-2-1.8-2.7
				c-1.8-1.9-3.7-3.6-5.8-5.2c-0.2-1.1,0-1.9-0.4-2.6l-0.2-0.1c-0.6,0.6-0.7,1.4-0.5,2.6c-2.5,2-6.3,4.3-7.4,7.8
				c0,0-0.1,0.1-0.2,0.1c-0.3-0.6-0.5-1.2-0.8-1.8c-0.3-0.2-0.4-0.3-0.8-0.3h-0.1c-0.8,1.3-0.5,8.5,0.3,9.3c-0.4,1.2-1.4,2-1.5,3.5
				c0.5,0.4,1.3,0.4,2.2,0.3c-0.6,2.6-2.4,4.1-2,8c-0.6,0.1-1.2,0.1-1.8,0.2c-0.7,0.4-1.6,2.1-1.9,2.9v0.4c0.9,0.6,2.9,0.4,4.3,0.3
				c0.1,1.2,0.1,2.4,0.2,3.6c-3.2,0.1-6.4,0.1-9.6,0.2c-5.7,0-11.4-0.1-17.2-0.1h-45.9c0-0.8,0-1.7-0.1-2.5c0.7-0.2,1.6-0.2,2.1-0.4
				c-0.1-1.3-1.2-2.5-1.8-3.4c-0.6,0-1.1-0.1-1.7-0.1c-0.2-1.4-0.3-2.7-0.5-4.1c-0.4-1.5-1.2-2.6-1.8-3.9c0-0.1,0-0.1,0.1-0.2h2
				c0.4-1-0.7-3.1-1.3-3.6c0.1-0.6,0.5-1.1,0.6-1.6v-7.4c-0.2-0.2-0.4-0.3-0.6-0.5c-0.2,0-0.3,0.1-0.5,0.1c-0.3,0.5-0.7,1.2-0.8,1.9
				c0,0-0.1,0.1-0.2,0.1c-2.2-3.1-4.2-5.7-7.4-7.7c-0.1-0.9,0-1.9-0.2-2.5c-0.2-0.1-0.3-0.2-0.6-0.2c-0.4,0.6-0.4,1.5-0.4,2.6
				c-2.1,2.3-6.6,4.2-7.3,7.8c0,0-0.1,0.1-0.2,0.1c-0.3-0.7-0.6-1.3-0.8-2c-0.3,0-0.6-0.1-0.9-0.1c-0.8,1.5-0.3,8,0.3,9.2
				c-0.3,1.3-1.6,2.2-1.4,3.7v0.1c0.6,0.2,1.5,0.2,2.1,0.1c0,0.1,0.1,0.2,0.1,0.3c-1.3,1.9-2.2,4.4-2.1,7.7c-0.4,0.2-1.1,0-1.7,0.2
				c-0.7,0.3-1.7,2.5-2,3.2c0.3,0.6,0.8,0.6,1.7,0.6c0.4,0.9,0.2,2.7,0.2,3.9v10.9c0,12,0,23.9,0.1,35.9h97.4c0,0,2.8,0.1,0.7,0.1
				c-0.4,0.7-0.1,2.3,0,3.4h95c0-0.1,0-0.1,0.1-0.2c-0.1-0.9-0.1-3.1-0.1-3.1h97.6c0-16.9,0-33.9,0.1-50.9c0.5-0.1,1.2-0.1,1.5-0.3
				c0.1-0.1,0.2-0.1,0.2-0.2C1330,640,1328.9,638.9,1328.3,638z M1202.9,600.2c0.5,0.6,0.2,3.4,0.2,4.5c0,0,0,0.1-0.1,0.1h-0.1
				C1202.6,603.5,1202.7,601.3,1202.9,600.2z M1058.8,623.3c0-0.9,0-1.8,0.1-2.8h0.1c0.8,1.1,0,5.1-0.9,5.4
				C1058.2,625,1058.5,624.2,1058.8,623.3z M1049.7,612.1c1.5,0.1,2.1,1.4,3.2,1.9c0,0.1,0.1,0.2,0.1,0.3c-2,0.1-3.9,0.1-5.9,0.2
				c0-0.1,0-0.1-0.1-0.2C1048,613.6,1048.9,612.8,1049.7,612.1z M1051.1,625.9c-0.6,0-1.2,0.1-1.8,0.1c-0.2-1,0.4-1.9,0.7-2.6h0.2
				C1050.7,624.1,1051.1,624.7,1051.1,625.9z M1041.3,620.6c0.5,0.5,0,2.3,0.3,3.3c0.2,0.6,0.5,1.3,0.7,1.9v0.1c0,0-0.1,0.1-0.1,0.1
				c-0.3-0.3-0.6-0.6-0.8-0.9V620.6z M1040.6,628.8l-0.1-0.2c0.2-0.4,0.5-0.8,0.7-1.3c6,0,12,0.1,17.9,0.1c0.2,0.4,0.4,0.7,0.5,1.1
				v0.3H1040.6z M1053.4,691.5c-2.2,0-4.3,0.1-6.5,0.1c-0.3-1-0.2-11.6,0.1-12.2h6.3C1053.9,680.9,1053.4,689.1,1053.4,691.5z
				 M1049.5,662.8c0,1.2,0,2.5,0.1,3.7c-0.6,0.3-2,0.2-2.7,0.1c0-1.3,0-2.5,0.1-3.8H1049.5z M1046.9,661.5v-3.9h2.6v3.8
				C1049,661.6,1047.8,661.5,1046.9,661.5z M1047.1,667.8h2.4c0,1.5,0.1,3,0.2,4.5c-0.4,0.5-1.9,0.4-2.7,0.3c0-1.5,0-3-0.1-4.5
				C1046.9,668,1047,667.9,1047.1,667.8z M1053.3,662.8c0,1.3,0,2.5,0.1,3.8c-0.9,0-1.7,0.1-2.6,0.1c-0.3-0.7-0.3-3-0.1-3.9H1053.3z
				 M1050.7,661.5v-3.9h2.6c0,1.2,0,2.5,0.1,3.7C1053.1,661.4,1051,661.7,1050.7,661.5z M1053.4,672.5c-0.6,0.3-1.9,0.2-2.5,0.2
				c-0.1-0.1-0.2-0.1-0.2-0.2c0-1.2-0.3-3.6,0.2-4.7c0.8,0,1.6,0.1,2.4,0.1C1053.7,668.9,1053.4,671.2,1053.4,672.5z M1045.6,656.2
				c0-0.1-0.1-0.1-0.1-0.2c0.2-0.3,0.4-0.6,0.5-0.9h8c0.3,0.3,0.5,0.6,0.5,1.1H1045.6z M1053.3,653.2c0,0.1,0,0.2,0.1,0.3
				c0,0.1-0.1,0.1-0.1,0.2h-6.5v-0.4c0.1-0.1,0.3-0.1,0.4-0.2C1049.3,653.2,1051.3,653.2,1053.3,653.2z M1050.1,648.6
				c1.4,0.7,2.3,4.1-0.9,3.4C1048.4,650.7,1049.3,649.5,1050.1,648.6z M1125.3,652.1c0.1-0.1,0.2-0.2,0.2-0.3c1.6,0,4.5-0.5,5.7,0.2
				c0.2,1.6,0.5,5.3-0.2,6.5c-1.8,0.1-4.3,0.3-5.7-0.1C1124.9,657,1125,653.6,1125.3,652.1z M1131.2,670.4c-1.1,0.5-4.9,0.6-6-0.1
				c-0.7-4.1,0.4-5.4,2.8-6.5C1131,663.8,1131.9,666.9,1131.2,670.4z M1100.6,652.1c0.1-0.1,0.1-0.2,0.2-0.3c1.6,0,4.5-0.5,5.7,0.2
				c0.2,1.6,0.5,5.3-0.2,6.5c-1.8,0.1-4.3,0.3-5.7-0.1c0-0.1,0-0.2-0.1-0.3V652.1z M1103.5,663.8c2.9,0,3.8,3.1,3.1,6.6
				c-0.8,0.4-5.5,0.5-5.9-0.2c0-0.7-0.1-1.3-0.1-2C1100.6,665.2,1101.5,664.6,1103.5,663.8z M1092.2,651.8c1.6,0,4.4-0.5,5.6,0.2
				c0.3,1.1,0.5,5.4-0.2,6.5c-1.7,0.1-4.7,0.5-5.8-0.3C1091.7,656.6,1091.6,652.7,1092.2,651.8z M1098,668.4c0,0.6,0,1.2-0.1,1.8
				c-0.4,0.7-5.5,0.4-6,0c-0.7-3.8,0.5-5.4,2.7-6.5C1097.2,663.7,1098,665.6,1098,668.4z M1082.7,652.1c0.1-0.1,0.1-0.2,0.2-0.3
				c1,0,5.4-0.2,5.7,0.3c0.6,1.2,0.3,5,0,6.3c-1.5,0.4-4.9,0.5-5.9-0.2C1082.7,656.2,1082.7,654.1,1082.7,652.1z M1085.5,663.8
				c2.9,0,3.9,3.2,3.1,6.6c-1.4,0.3-4.8,0.5-5.9-0.2C1082.6,665.9,1082.6,665.1,1085.5,663.8z M1074,652c0.1-0.1,0.1-0.2,0.2-0.3
				h5.6c0.3,0.6,0.6,5.8,0.2,6.5c-0.5,0.7-5.6,0.1-6-0.2C1074,656.1,1074,654.1,1074,652z M1076.7,663.8c2,0,3.1,1.4,3.4,3.2
				c0.2,1,0.1,3.1-0.4,3.4c-0.9,0.5-5.2,0.2-5.8-0.3C1073.9,666.1,1074.2,665,1076.7,663.8z M1065.5,651.8c1.6,0,4.7-0.5,5.8,0.3
				v6.1c-0.1,0.1-0.1,0.1-0.2,0.2c-0.9,0.7-5,0.4-5.8,0C1065.2,656.6,1064.9,653.1,1065.5,651.8z M1071.4,668.3c0,0.8,0,1.6-0.2,2.1
				c-1.4,0.4-4.3,0.3-5.7,0c-0.2-0.6-0.2-1.5-0.2-2.3c0-3,0.8-3.4,2.7-4.4C1070.5,663.8,1071.4,665.5,1071.4,668.3z M1065.7,672.5
				c1.7,0,4.7-0.4,5.7,0.4c0,2,0.3,5.2-0.5,6.4c-1.8,0-3.6-0.1-5.4-0.1C1065.1,678,1065,673.3,1065.7,672.5z M1071.2,687.7
				c-1.3,0.3-4.7,0.5-5.8-0.1c-0.2-1.7-0.4-5.1,0.2-6.5c1.6,0,4.6-0.5,5.8,0.3C1071.6,682.8,1071.8,686.6,1071.2,687.7z
				 M1079.7,687.7h-5.5c0-0.1-0.1-0.1-0.2-0.2c-0.4-0.7-0.2-5.2-0.1-6.1c0.1-0.1,0.1-0.2,0.2-0.3c1.8,0,3.7,0.1,5.5,0.1
				c0.1,0.1,0.1,0.1,0.2,0.2C1080.3,682,1080.3,687.3,1079.7,687.7z M1079.7,679.3c-1.6,0-4.4,0.4-5.6-0.3c-0.3-1.1-0.5-5.4,0.2-6.5
				c0,0,0.1-0.1,0.2-0.1c1.2,0,5.2-0.3,5.6,0.4C1080.6,673.8,1080,678.7,1079.7,679.3z M1088.6,687.7c-1.4,0.3-4.9,0.5-5.9-0.2
				c0-1.8-0.4-4.9,0.2-6.3c0,0,0.1-0.1,0.2-0.1c1,0,5.3-0.2,5.6,0.3C1089.1,682.6,1088.9,686.4,1088.6,687.7z M1088.4,679.3
				c-1.7,0-4.7,0.4-5.7-0.4c0-1.7-0.4-4.8,0.2-6.2l0.3-0.2c1.1,0,5.1-0.2,5.5,0.3C1089.2,674,1088.9,678.4,1088.4,679.3z
				 M1092.1,672.6c0.1-0.1,0.2-0.1,0.2-0.2c1.8,0,3.6,0.1,5.4,0.1c0.1,0.1,0.2,0.3,0.3,0.4c0,1.7,0.4,5.7-0.5,6.2
				c-1,0.5-5.1,0.1-5.6-0.3C1091.7,677.5,1091.5,673.7,1092.1,672.6z M1097.7,687.8c-1.9,0-3.8-0.1-5.6-0.1
				c-0.5-1.2-0.5-5.6,0.2-6.6c1.6,0,4.4-0.5,5.6,0.2C1098.3,682.6,1098.4,686.7,1097.7,687.8z M1106.4,687.8c-1.9,0-3.8-0.1-5.7-0.1
				c-0.4-1.4-0.3-4.7-0.1-6.2l0.2-0.3c1.6,0,4.5-0.5,5.7,0.2C1106.8,682.9,1107,686.5,1106.4,687.8z M1106.4,679.2
				c-1.4,0.3-4.8,0.4-5.8-0.3v-6.2c0.2-0.1,0.5-0.2,0.7-0.3c1.5,0.4,4-0.4,5.3,0.3C1106.9,674.2,1107,678,1106.4,679.2z
				 M1108.3,672.5c1.7,0,4.6-0.4,5.7,0.3v6c-0.1,0.2-0.3,0.3-0.4,0.5c-1.5,0-4.5,0.4-5.6-0.3
				C1107.7,677.6,1107.6,673.4,1108.3,672.5z M1107.9,668.3c0-3,0.8-3.5,2.7-4.5c2.5,0,3.5,1.7,3.5,4.5c0,0.8,0,1.6-0.2,2.1
				c-0.8,0.2-5.4,0.4-5.8-0.2C1107.8,669.8,1107.9,669,1107.9,668.3z M1113.8,687.7c-0.4,0.3-5.6,0-5.8-0.2
				c-0.4-0.9-0.1-4.7-0.1-6.1l0.2-0.3c1.9,0,3.8,0.1,5.6,0.1C1114.1,681.8,1114.3,687.3,1113.8,687.7z M1113.8,658.3
				c-1.1,0.3-5.2,0.6-5.8-0.2c-0.4-0.9-0.2-5.7,0.2-6.4c1.6,0,4.7-0.4,5.8,0.3C1114.2,653.7,1114.4,657.1,1113.8,658.3z
				 M1116.7,672.6l0.2-0.2c1.8,0,3.6,0.1,5.4,0.1c0.1,0.1,0.2,0.3,0.3,0.4c0,1.5,0.4,5.6-0.5,6.2c-1,0.5-5.1,0.1-5.6-0.3
				C1116.3,677.5,1116.2,673.7,1116.7,672.6z M1116.5,670.2c-0.1-4,0.3-5.2,2.7-6.4c2.6-0.1,3.4,1.8,3.4,4.6c0,0.6,0,1.2-0.1,1.8
				C1122.2,671,1117.1,670.6,1116.5,670.2z M1122.4,687.8c-1.9,0-3.8-0.1-5.6-0.1c-0.5-1.2-0.5-5.6,0.1-6.6c1.6,0,4.4-0.5,5.6,0.2
				C1122.9,682.7,1123,686.7,1122.4,687.8z M1122.4,658.4c-1.7,0.1-4.7,0.5-5.8-0.3c-0.2-1.1-0.3-5.9,0.3-6.3l0.3-0.2
				c1.5,0.4,4-0.4,5.3,0.3C1122.9,653.3,1123,657.4,1122.4,658.4z M1131.1,687.8c-1.9,0-3.8-0.1-5.7-0.1c-0.4-1.4-0.3-4.7-0.1-6.2
				c0.1-0.1,0.2-0.2,0.2-0.3c1.6,0,4.5-0.5,5.7,0.2C1131.4,682.9,1131.7,686.5,1131.1,687.8z M1131.1,679.2
				c-1.4,0.3-4.8,0.4-5.8-0.3c-0.3-1.9-0.5-5.8,0.7-6.6c1.5,0.4,4-0.4,5.3,0.3C1131.5,674.2,1131.6,678,1131.1,679.2z M1233.1,638
				c0.3,0.4,0.6,0.7,0.8,1.1v0.3c-6.5,0-13.1-0.1-19.6-0.1c-0.2-0.5-0.5-0.8-0.5-1.3C1220.3,637.9,1226.7,638,1233.1,638z
				 M1224.3,654.5c0,0.1,0.1,0.2,0.2,0.3c-0.3,0.4-5.6,0.6-6.3,0.3c-0.2-0.2-0.2-0.1-0.2-0.5H1224.3z M1219.8,652.6
				c-0.3-1.1,0.9-2.2,1.3-2.8c0.7,0.4,1.8,2.1,1.2,3.2C1221.8,653.9,1220,653.4,1219.8,652.6z M1225.2,656.4
				c0.2,0.3,0.3,0.5,0.5,0.8v0.3l-0.1,0.1c-2.3-0.4-6.6-0.6-8.9,0c0,0-0.1-0.1-0.2-0.1c0.2-0.5,0.4-0.8,0.7-1.2
				C1220,656.4,1222.6,656.4,1225.2,656.4z M1148.9,654.4c0,0.1,0.1,0.1,0.2,0.2v0.3c-1.4,0.7-4.6,0.2-6.3,0.2
				c-0.1-0.3-0.1-0.3,0-0.7H1148.9z M1144.4,652.1c0.4-0.7,0.8-1.5,1.2-2.2h0.4c0.4,0.7,1.6,1.9,1.1,2.9c-0.1,0.1-0.3,0.3-0.4,0.4
				h-1.8C1144.5,653.1,1144.4,652.7,1144.4,652.1z M1149.8,656.4c0.2,0.3,0.4,0.6,0.6,0.8v0.3c0,0,0,0.1-0.1,0.1
				c-2.6-0.4-6.4-0.4-9.1,0c0-0.1,0-0.1-0.1-0.2c0.2-0.3,0.4-0.7,0.6-1H1149.8z M1148.9,658.8v3.4c-0.3,0.4-5.8,0.3-6.3,0.2v-3.6
				H1148.9z M1149,663.6v3.6c-2.1,0-4.3,0.1-6.4,0.1c0-1.2,0-2.5-0.1-3.7H1149z M1146.2,680.9c-1.4,0.4-3.1-1.4-2.7-3.1
				c0.3-0.9,1-1.3,1.5-1.8C1148.7,675.7,1148.9,680.1,1146.2,680.9z M1143.4,690.7l0.3-0.2c26.3,0,52.7,0.1,79,0.1h0.2
				c0,0.5,0,1,0.1,1.5c-0.7,0.7-3.7,0.3-4.9,0.3h-13.8c-20.2,0-40.5-0.1-60.7-0.1h-0.1V690.7z M1221.6,680.9c-1.9,0.5-3.1-2-2.4-3.6
				c0.3-0.6,0.9-0.9,1.4-1.3C1224.1,675.7,1224.2,680.2,1221.6,680.9z M1217.9,667.3c0-1.2,0-2.4-0.1-3.6c2.2,0,4.4-0.1,6.6-0.1v3.6
				C1222.2,667.3,1220.1,667.3,1217.9,667.3z M1224.3,662.4h-6.3c-0.4-0.4-0.3-3.1-0.1-3.6c2.1,0,4.2,0.1,6.3,0.1h0.2
				C1224.4,660,1224.4,661.2,1224.3,662.4z M1217.2,687.4c0.2,0.3,0.3,1.2,0.1,1.7c-0.4,0.5-3.3,0.2-4.3,0.2h-12.7
				c-17,0-33.9,0.1-50.9,0.1c-0.1-0.1-0.2-0.2-0.2-0.3c-0.2-0.5-0.1-1.3,0.1-1.7c3.9,0.1,7.7,0.1,11.6,0.2h44.7
				C1209.4,687.5,1213.3,687.5,1217.2,687.4z M1158.9,676.2c0.2,0.1,0.4,0.2,0.6,0.3v6.6h-3.7c0-2.2,0-4.4-0.1-6.6
				c0.3-0.1,0.5-0.2,0.7-0.4c0.1-9.2,0.1-18.3,0.2-27.5c0.7,0,1.4,0.1,2.1,0.1c0.4,0.5,0.2,6,0.2,7.2
				C1158.8,662.7,1158.8,669.5,1158.9,676.2z M1212.4,684.5c0,0.6,0,1.2,0.1,1.8c-19.5,0-39.1,0.1-58.6,0.1v-1.8
				C1173.4,684.5,1192.9,684.5,1212.4,684.5z M1164.4,676.6c0.1-0.3,0.6-0.3,0.7-0.7v-27c0.1-0.1,0.2-0.2,0.2-0.3h1.9
				c0,9.1,0,18.3,0.1,27.4c0.2,0.2,0.4,0.4,0.8,0.5v6.5h-3.5C1164.4,683,1164.2,677,1164.4,676.6z M1173.7,648.7h1.8
				c0.1,0.1,0.2,0.2,0.2,0.3c0,7,0,14.1-0.1,21.1c0,2-0.5,5.8,0.8,6.6v6.5c-1.2,0-2.4,0.1-3.6,0.1c0-2.2-0.1-4.4-0.1-6.6
				c0.3-0.2,0.5-0.2,0.7-0.6c0-6.9,0-13.9,0.1-20.8C1173.6,653.6,1173.2,649.7,1173.7,648.7z M1182.1,668.5c0-6.6-0.1-13.1-0.1-19.7
				c0.6-0.3,1.7-0.2,2.4-0.1c0,9.2,0,18.3,0.1,27.5c0.2,0.1,0.4,0.2,0.6,0.3c0,2.2,0.1,4.3,0.1,6.5c-0.8,0.4-2.6,0.2-3.7,0.2
				c0-2.2,0-4.4-0.1-6.6c0.2-0.1,0.4-0.1,0.5-0.2C1182.6,674.7,1182.1,670.8,1182.1,668.5z M1190.6,669.9c0-7,0-14.1-0.1-21.1
				c0.1-0.1,0.2-0.1,0.3-0.2c0.6,0,1.2,0.1,1.8,0.1c0.4,0.5,0.2,5.9,0.2,7.1c0,6.8,0,13.5,0.1,20.3c0.2,0.3,0.4,0.4,0.7,0.5v6.5
				c-1.2,0-2.4,0.1-3.6,0.1c0-2.2-0.1-4.4-0.2-6.6C1191.2,676.1,1190.6,671.8,1190.6,669.9z M1202,676.5v6.6h-3.5
				c0-2.2-0.1-4.4-0.1-6.6c0.2-0.2,0.5-0.3,0.7-0.5v-27.1c0.1-0.1,0.2-0.2,0.2-0.3c0.6,0,1.2,0.1,1.8,0.1c0.4,0.5,0.2,4.5,0.2,5.5
				V670C1201.3,671.7,1200.8,676.1,1202,676.5z M1210.5,676.5c0,2.2,0,4.4,0.1,6.6c-1.2,0-2.4,0.1-3.7,0.1c0-2.2,0-4.4-0.1-6.6
				c0.4-0.1,0.5-0.1,0.7-0.3c0-9.2,0.1-18.3,0.2-27.5c0.7,0,1.4,0.1,2.1,0.1v21C1209.8,671.5,1209.3,676.1,1210.5,676.5z
				 M1229.8,622.2c0-1,0.1-1.9,0.1-2.9h0.1c0.8,1.2-0.2,4.8-0.6,5.4h-0.3C1229.3,623.9,1229.6,623,1229.8,622.2z M1218.2,613.3
				c0.6-1.1,2-1.4,2.7-2.4c1.2,0.1,2.3,1.5,3.1,2.2c0,0.1,0,0.2,0.1,0.3L1218.2,613.3L1218.2,613.3z M1222.2,624.6L1222.2,624.6
				c-0.6,0.1-1.2,0.1-1.8,0.2c0,0-0.1-0.1-0.1-0.1c0.1-0.9,0.5-1.5,0.8-2.2C1221.7,622.9,1222.1,623.9,1222.2,624.6z M1212.3,619.6
				h0.2c0,0.9,0,1.8,0.1,2.7c0.3,0.8,0.5,1.6,0.8,2.4c-0.1,0-0.2,0.1-0.2,0.1C1212.1,624,1212.1,621.2,1212.3,619.6z M1211.7,627.6
				c0-0.1,0-0.1-0.1-0.2c0.3-0.4,0.5-0.8,0.8-1.3h17.7c0.3,0.4,0.5,0.8,0.8,1.3v0.1C1224.4,627.5,1218,627.6,1211.7,627.6z
				 M1210.4,634.6c0,0.8,0,1.6,0.1,2.4c-0.4,0.6-4.6,0.3-5.7,0.3h-17.2v-2.8H1210.4z M1187.3,630.7c-0.2-1.5-0.4-5.1,0.4-5.9
				c0.2,0.1,0.3,0.2,0.5,0.3c0.2,1.3,0.4,5.3-0.4,5.9C1187.6,630.9,1187.5,630.8,1187.3,630.7z M1190.4,625.5
				c0.1-0.2,0.3-0.4,0.4-0.7h0.2c0.2,0.2,0.3,0.4,0.5,0.6c0.5,1.3,0.1,4.8-0.4,5.5C1190.1,630.7,1189.9,626.8,1190.4,625.5z
				 M1193.6,630.6c0-1.8,0.1-3.7,0.1-5.5c0.1-0.1,0.2-0.2,0.3-0.3c0.1,0,0.3,0.1,0.4,0.1c0.6,1.2,0.6,5-0.1,6.1
				c-0.3-0.1-0.2,0-0.4-0.2C1193.8,630.7,1193.7,630.7,1193.6,630.6z M1197,624.9c0,0,0.1-0.1,0.2-0.1c0.2,0.1,0.4,0.2,0.5,0.3v5.5
				c-0.2,0.1-0.4,0.2-0.6,0.3c-0.1-0.1-0.1-0.2-0.2-0.3C1196.3,629.8,1196.6,625.7,1197,624.9z M1200.3,624.8
				c0.2,0.2,0.5,0.3,0.7,0.5c0,1.8,0,3.5-0.1,5.3c-0.2,0.1-0.3,0.2-0.5,0.3c-0.1-0.1-0.3-0.1-0.4-0.2
				C1199.6,629.4,1199.6,625.8,1200.3,624.8z M1179.6,573.4h7.3v2.7h-7.3V573.4z M1174.6,587.1c0.9-0.7,1.8-1.3,2.7-2
				c5.3,0,11.8-1,14.4,2.1c0,0.1,0,0.1-0.1,0.2c-5.6,0-11.3-0.1-16.9-0.1h-0.2V587.1z M1173.3,588.4h15.7c2.3,0,4.9-0.4,5.5,1.4
				h-22.6l-0.1-0.2C1172.3,589.3,1172.8,588.8,1173.3,588.4z M1184.4,605.6L1184.4,605.6c-0.7,0.1-1.5,0.2-2.2,0.3
				c-0.2,0-0.5-0.1-0.7-0.1c0.2-1.2,0.8-2.1,1.2-2.9h0.4C1183.6,603.7,1183.9,604.8,1184.4,605.6z M1163.5,604.6c0-0.3,0-0.7-0.1-1
				C1163.5,604,1163.5,604.3,1163.5,604.6L1163.5,604.6z M1163.5,602.4c0-0.7,0-1.4-0.1-2.1C1163.7,600.8,1163.6,601.8,1163.5,602.4
				z M1164.2,607.3c0,0,0.1-0.1,0.2-0.1c12.5,0,25.1,0.1,37.6,0.1h0.2c-0.4,0.4-0.8,0.8-1.1,1.3c-11.9,0-23.8,0.1-35.6,0.1
				c-0.1-0.1-0.1-0.2-0.2-0.3C1164.9,608.1,1164.5,607.7,1164.2,607.3z M1200.3,615.3c-1.2,0.7-7.5,0.3-9.5,0.3
				c-8.2,0-16.4-0.1-24.6-0.1v-5.2c0.1-0.1,0.2-0.2,0.2-0.3h33.6c0,0.1,0.1,0.2,0.2,0.3C1200.2,611.9,1200.2,613.6,1200.3,615.3z
				 M1160.9,621.4c-0.2-0.5-0.2-1.2,0-1.7c14.9,0,29.7,0.1,44.6,0.1c0.2,0.2,0.2,1,0.1,1.3c-0.4,0.6-1.9,0.1-2.7,0.1h-8.2
				C1183.4,621.2,1171.8,621.3,1160.9,621.4z M1186.5,637.1c-0.7,0.7-5.2-0.1-6.4,0.3c-0.3-0.3-0.2-0.9-0.2-1.5
				c0-2.7,1.2-3.4,3.1-4.1C1185.1,631.7,1187.6,634.2,1186.5,637.1z M1178.5,630.9l-0.2,0.1c-0.3-0.1-0.2,0-0.4-0.3
				c-0.4-0.7-0.2-5.3,0.1-5.8c0,0,0.1-0.1,0.2-0.1c0.2,0.1,0.4,0.2,0.5,0.3C1178.7,626.8,1179,629.8,1178.5,630.9z M1175.5,630.5
				c-0.1,0.1-0.2,0.3-0.3,0.4c-0.3-0.1-0.4-0.2-0.5-0.4v-5.3c0.1-0.1,0.3-0.3,0.4-0.4c0.3,0.1,0.2,0.1,0.4,0.3
				C1175.7,625.5,1175.8,630,1175.5,630.5z M1172.1,630.9c-0.9-0.2-1.1-4.5-0.7-5.5c0.1-0.2,0.3-0.4,0.4-0.7c0.1,0,0.3,0.1,0.4,0.1
				C1172.8,626,1172.7,630,1172.1,630.9z M1169.1,630.7v0.2c-0.4,0-0.4,0-0.8-0.2c-0.1-1.5-0.4-4.6,0.2-5.8c0.1,0,0.1-0.1,0.2-0.1
				C1169.3,625,1169.6,629.9,1169.1,630.7z M1165.8,630.9h-0.3c-0.2-0.2-0.3-0.3-0.5-0.5c0-1.8-0.3-4.6,0.5-5.6
				c0.1,0,0.3,0.1,0.4,0.1C1166.4,626.1,1166.4,629.8,1165.8,630.9z M1156,634.6h22.7c0.2,0.5,0,1.7,0.2,2.4
				c-0.4,0.6-4.9,0.3-6.1,0.3c-5.6,0-11.2-0.1-16.9-0.1C1156,636.3,1156,635.5,1156,634.6z M1212.3,645.6c0.3,0.3,0.2,1.4,0.1,1.8
				c-19.5,0-38.9,0.1-58.4,0.1c-0.2-0.4-0.2-1.4-0.1-1.9C1173.4,645.5,1192.9,645.5,1212.3,645.6z M1153.8,622.2
				c0.2-1-0.1-2.2,0.2-2.9c0.9,1.3-0.1,5.1-0.8,5.5c0,0-0.1-0.1-0.2-0.1C1153.3,623.9,1153.6,623,1153.8,622.2z M1145,610.9
				c0.9,0.1,2.9,1.6,3.1,2.4h-5.8c0-0.1,0-0.1-0.1-0.2C1143.1,612.4,1144.1,611.7,1145,610.9z M1146.2,624.7
				c-0.3,0.3-1.2,0.2-1.8,0.2c0,0-0.1-0.1-0.1-0.1c0.1-0.9,0.5-1.4,0.8-2.1C1145.8,623,1146,624,1146.2,624.7z M1136.4,619.6h0.2
				c0,0.9,0,1.8,0.1,2.7c0.3,0.8,0.5,1.6,0.8,2.4c0,0.1,0,0.1-0.1,0.2c-0.5-0.2-0.6-0.5-0.9-0.8V619.6z M1135.7,627.6
				c0-0.1,0-0.1-0.1-0.2c0.3-0.5,0.5-0.9,0.8-1.3h17.6c0.3,0.4,0.5,0.8,0.8,1.3v0.1C1148.4,627.5,1142,627.6,1135.7,627.6z
				 M1132.4,639.3c0.3-0.5,0.6-1,0.8-1.4h19.3c0,0,0.1,0.1,0.1,0.1v0.3c-0.3,0.3-0.4,0.8-0.8,1
				C1145.4,639.3,1138.9,639.3,1132.4,639.3z M1136.3,640.8c1-0.5,3.2-0.2,4.5-0.2h10.4c-0.2,1.3-1.2,2.1-1.5,3.3
				c-1.8,1.4-10-0.3-13,0.5C1136.1,643.9,1136.2,641.9,1136.3,640.8z M1136.9,694.8v-1h92.4c0.2,0.2,0.2,0.5,0.2,0.9
				C1198.6,694.8,1167.7,694.8,1136.9,694.8z M1230.8,644.2c-4.5,0.1-9,0.1-13.4,0.2c-0.8-0.5-2.1-2.6-2.1-3.8h15.5
				c0.1,0.1,0.1,0.1,0.2,0.2C1230.9,641.9,1230.8,643.1,1230.8,644.2z M1243.5,651.8c1.6,0,4.6-0.5,5.7,0.3c0.3,1,0.4,5.9-0.2,6.3
				c-0.9,0.5-4.9,0.4-5.7-0.2C1242.9,656.6,1242.8,652.9,1243.5,651.8z M1249.4,668.3c0,0.8,0,1.6-0.2,2.1c-1.4,0.4-5,0.5-5.9-0.3
				c-0.3-3.8,0.4-5.2,2.7-6.4C1248.4,663.8,1249.4,665.6,1249.4,668.3z M1240.5,687.7h-5.9v-6.2c0-0.1,0.1-0.2,0.2-0.3
				c1.6,0,4.7-0.5,5.8,0.3C1240.7,683.4,1240.8,685.9,1240.5,687.7z M1240.5,679c-1.1,0.5-4.8,0.6-5.9,0c-0.3-1.5-0.4-5.8,0.4-6.6
				c1.7,0,4.5-0.4,5.6,0.3C1240.8,674.5,1240.9,677.4,1240.5,679z M1237.1,663.8c2.7,0,3.7,2,3.4,5c-0.1,0.6,0.1,1.2-0.2,1.7
				c-1.3,0.4-4.8,0.5-5.9-0.2C1234.5,665.9,1234.5,665.2,1237.1,663.8z M1240.4,658.4c-1.3,0.1-4.5,0.5-5.7-0.2
				c-0.3-1.5-0.4-5.3,0.2-6.5c1.6,0,4.7-0.5,5.8,0.3C1240.7,653.6,1241.1,657.2,1240.4,658.4z M1249,687.7h-5.5
				c0-0.1-0.1-0.1-0.2-0.2c-0.5-0.9-0.3-5.7,0.2-6.4c1.6,0,4.6-0.5,5.7,0.3C1249.5,682.3,1249.6,687.3,1249,687.7z M1248.9,679.3
				c-1.5,0-4.5,0.4-5.6-0.3c-0.5-1.3-0.5-5.4,0.2-6.5c0,0,0.1-0.1,0.2-0.1c1.7,0,4.5-0.4,5.6,0.3
				C1249.6,674.5,1249.6,678.2,1248.9,679.3z M1257.8,687.7c-1.4,0.3-4.9,0.5-5.9-0.2c-0.2-1.6-0.4-5.1,0.2-6.3c0,0,0.1-0.1,0.2-0.1
				c1.6,0,4.4-0.5,5.6,0.2C1258.1,683,1258.2,686.2,1257.8,687.7z M1257.7,670.5c-1.6,0.1-4.6,0.5-5.8-0.3c-0.7-4,0.5-5.4,2.8-6.5
				c2.4,0,3.3,1.8,3.3,4.5C1258,669.3,1258,670,1257.7,670.5z M1257.6,679.3c-1.7,0-4.7,0.4-5.7-0.4V673c0.2-0.2,0.3-0.3,0.5-0.5
				c1.8,0,3.6,0.1,5.3,0.1C1258.3,673,1258,678.7,1257.6,679.3z M1257.7,658.4c-1.4,0.1-4.6,0.5-5.8-0.3c-0.3-1.6-0.3-5.2,0.2-6.4
				c1.6,0,4.5-0.5,5.7,0.2C1258.2,653.4,1258.3,657.3,1257.7,658.4z M1259.4,651.8c1.6,0,4.7-0.5,5.8,0.3c0.1,1,0.3,5.7-0.1,6.2
				c-0.7,0.6-4.9,0.5-5.8,0C1259,656.7,1258.9,653,1259.4,651.8z M1265.1,687.5c0,0.1-0.1,0.2-0.2,0.3c-1.9,0-3.8-0.1-5.7-0.1
				c-0.2-1.6-0.4-5.3,0.2-6.6c1.6,0,4.7-0.5,5.8,0.3C1265.3,683,1265.8,686,1265.1,687.5z M1259.7,672.5c1.7,0,4.5-0.4,5.6,0.3
				c0.2,1.7,0.3,4.6-0.1,6.2c-1.1,0.5-4.8,0.6-5.9,0C1259.1,677.5,1258.8,673.2,1259.7,672.5z M1265.1,670.4c-1.4,0.4-4.3,0.4-5.7,0
				l-0.1-0.3c0-0.7,0-1.3-0.1-2c0-3,0.8-3.4,2.6-4.4C1264.8,663.8,1266.4,667.7,1265.1,670.4z M1273.6,687.7
				c-0.8,0.3-5.2,0.2-5.7-0.2c-0.4-1.6-0.4-5.3,0.2-6.4c1.9,0,3.8,0.1,5.6,0.1C1274.1,682.1,1274.3,687.2,1273.6,687.7z
				 M1273.5,679.3c-1.5,0-4.5,0.4-5.6-0.3c-0.4-1.4-0.5-5.4,0.2-6.5c0,0,0.1-0.1,0.2-0.1c1.4,0,5.1-0.5,5.6,0.5
				C1274.4,674.2,1274,678.6,1273.5,679.3z M1270.5,663.8c2.5-0.1,3.5,1.7,3.5,4.5c0,0.8,0,1.6-0.2,2.1c-1.4,0.4-5,0.5-5.9-0.3
				C1267.6,666.4,1267.8,665.2,1270.5,663.8z M1273.8,658.3c-1.2,0.3-4.8,0.6-5.9-0.2c-0.3-1.6-0.4-5.4,0.2-6.4
				c1.6,0,4.6-0.5,5.7,0.3C1274.2,653.3,1274.3,657.2,1273.8,658.3z M1283.2,687.6c-0.1,0-0.2,0.1-0.2,0.1c-0.6,0.3-5.4,0.1-5.6-0.2
				c-0.4-0.8-0.2-5.6,0.1-6.4c1.9,0,3.8,0.1,5.7,0.1l0.1,0.3V687.6z M1283.2,678.9c-0.1,0.1-0.3,0.2-0.4,0.3c-1.1,0-5.1,0.2-5.5-0.3
				c-0.4-0.8-0.2-5.3,0-6.3l0.3-0.2c1.7,0,4.5-0.4,5.6,0.3C1283.2,674.8,1283.2,676.9,1283.2,678.9z M1283.1,670.4
				c-0.9,0.2-5.3,0.5-5.8-0.2c-0.2-0.4-0.2-1.3-0.2-2c0-3,0.8-3.5,2.6-4.5c2.6,0,3.5,1.6,3.5,4.5
				C1283.2,669,1283.3,670,1283.1,670.4z M1283.1,658.3c-0.6,0.2-5.4,0.5-5.8-0.2c-0.4-0.8-0.2-5.6,0.1-6.4c1.9,0,3.8,0.1,5.7,0.1
				C1283.4,652.1,1283.3,657.9,1283.1,658.3z M1286.1,651.8c1.7,0,3.4-0.1,5-0.1c0.2,0.1,0.4,0.2,0.6,0.3c0.4,1.3,0.5,5.5-0.2,6.5
				c-1.5,0.2-4.1,0.3-5.6-0.1C1285.5,657.2,1285.4,652.6,1286.1,651.8z M1291.7,670.4c-1.4,0.4-4.3,0.4-5.7,0
				c-0.2-0.5-0.2-1.3-0.2-2.2c0-2.9,0.9-3.6,2.7-4.5c2.5,0,3.4,1.7,3.4,4.5C1291.9,669.2,1292,670,1291.7,670.4z M1291.9,672.9v5.9
				c-0.2,0.2-0.3,0.3-0.5,0.5c-1,0-4.8,0.3-5.3-0.2c-0.7-0.6-0.5-6,0.1-6.6C1287.9,672.4,1290.9,672.1,1291.9,672.9z M1291.7,687.7
				h-5.7c-0.5-1.2-0.5-5.7,0.2-6.6c1.6,0,4.6-0.5,5.7,0.3C1292.1,682.8,1292.3,686.6,1291.7,687.7z M1300.3,687.8
				c-1.9,0-3.8-0.1-5.7-0.1c-0.3-0.3-0.2-5.6-0.1-6.3c0.1-0.1,0.2-0.2,0.2-0.3c1.8,0,3.7,0.1,5.5,0.1
				C1300.8,681.7,1300.7,687,1300.3,687.8z M1300.2,679.2c-0.8,0.4-5,0.2-5.6-0.2c-0.2-0.7-0.4-5.2-0.1-6.1c0.1-0.1,0.3-0.3,0.4-0.4
				c1.6,0,4.4-0.4,5.6,0.3C1300.6,673.9,1300.8,678.7,1300.2,679.2z M1294.5,668.2c0-3,0.9-3.5,2.8-4.4c2.2,0,3.2,1.5,3.3,3.9
				c0,0.9,0.2,2.4-0.3,2.8c-0.7,0.4-5.4,0.3-5.7-0.3C1294.5,669.5,1294.5,668.8,1294.5,668.2z M1300.3,658.4
				c-0.9,0.1-5.3,0.4-5.8-0.3V652c0.1-0.1,0.2-0.2,0.2-0.3c1.6,0,4.5-0.5,5.7,0.2C1300.6,653.8,1300.9,657.1,1300.3,658.4z
				 M1324.4,623.3c0-0.9,0-1.8,0.1-2.7h0.2v4.4c-0.2,0.3-0.5,0.6-0.7,0.9c-0.1,0-0.2,0.1-0.2,0.1l-0.1-0.1
				C1323.9,625,1324.1,624.2,1324.4,623.3z M1315.4,612.1c1.5,0,2.1,1.4,3.2,1.9c0,0.1,0.1,0.2,0.2,0.3c-2,0.1-3.9,0.1-5.9,0.2
				l-0.1-0.2C1313.6,613.6,1314.5,612.8,1315.4,612.1z M1316.6,625.9c-0.6,0-1.2,0.1-1.8,0.1c-0.3-1.1,0.4-2,0.8-2.6
				C1316.2,623.7,1316.6,624.9,1316.6,625.9z M1306.9,620.5L1306.9,620.5c0.1,0,0.2,0.1,0.2,0.1v2.8c0.3,0.8,0.5,1.7,0.8,2.5
				C1306.7,625.5,1306.4,622.2,1306.9,620.5z M1306.2,628.8c0.1-0.4,0.3-0.8,0.4-1.2c1-0.6,3.5-0.3,5-0.3c4.4,0,8.7,0.1,13.1,0.1
				c0.2,0.4,0.4,0.8,0.6,1.2c-0.6,0.5-4,0.2-5.2,0.2H1306.2z M1315.1,662.8c0,1.2,0.1,2.4,0.1,3.6v0.1c-0.4,0.2-2,0.3-2.6,0.1
				c-0.4-0.5-0.3-3.1-0.1-3.8H1315.1z M1312.5,661.5v-3.9h2.6c0,1.2,0.1,2.5,0.1,3.7c-0.1,0.1-0.2,0.1-0.2,0.2H1312.5z
				 M1315.1,672.6h-2.7v-4.5c0.1-0.1,0.2-0.2,0.2-0.3h2.4C1315.1,669.4,1315.1,671,1315.1,672.6z M1319,691.5
				c-2.2,0-4.3,0.1-6.5,0.1c-0.3-1-0.2-11.6,0.1-12.2h6.3C1319.5,680.9,1319,689.1,1319,691.5z M1318.9,662.8c0,1.3,0,2.5,0.1,3.8
				c-0.9,0-1.7,0.1-2.6,0.1c0-1.3,0-2.6-0.1-3.9H1318.9z M1316.3,661.5v-3.9h2.6v3.9H1316.3z M1316.4,667.8h2.4
				c0,0.1,0.1,0.2,0.2,0.3c0,1.5,0,3,0.1,4.5c-0.5,0.2-1.9,0.4-2.5,0.1C1316.1,672.3,1316.3,668.7,1316.4,667.8z M1311.2,656.2
				c0.1-0.6,0.3-0.7,0.5-1.1h8c0.3,0.3,0.5,0.6,0.5,1.1H1311.2z M1318.9,653.2l0.1,0.3c0,0.1,0,0.1-0.1,0.2h-6.5v-0.4
				c0.1-0.1,0.3-0.1,0.4-0.2C1314.9,653.2,1316.9,653.2,1318.9,653.2z M1315.7,648.6c0.7,0.4,1.4,1.6,1.4,2.6
				c-0.4,1-1.2,1.1-2.4,0.8C1314,650.7,1315,649.6,1315.7,648.6z"/>
		</g>
		<g style="clip-path:url(#SVGID_00000178888379028083003900000016193583359952601505_);">
			<g>
				<g>
					
						<linearGradient id="SVGID_00000157301573888520178860000007901063412789621893_" gradientUnits="userSpaceOnUse" x1="880.0692" y1="686.7756" x2="1024.3053" y2="686.7756">
						<stop  offset="0" style="stop-color:#EE6C26"/>
						<stop  offset="0.2517" style="stop-color:#EE7B32"/>
						<stop  offset="0.7667" style="stop-color:#EF9F56"/>
						<stop  offset="1" style="stop-color:#EFB26A"/>
					</linearGradient>
					<path style="fill:url(#SVGID_00000157301573888520178860000007901063412789621893_);" d="M905.5,687.1c1-0.2,2.1-0.4,3.1-0.6
						C907.8,686.6,906.7,686.8,905.5,687.1z"/>
					
						<linearGradient id="SVGID_00000054985136350834385830000013394962230761810875_" gradientUnits="userSpaceOnUse" x1="880.0691" y1="659.174" x2="1024.3059" y2="659.174">
						<stop  offset="0" style="stop-color:#EE6C26"/>
						<stop  offset="0.2517" style="stop-color:#EE7B32"/>
						<stop  offset="0.7667" style="stop-color:#EF9F56"/>
						<stop  offset="1" style="stop-color:#EFB26A"/>
					</linearGradient>
					<path style="fill:url(#SVGID_00000054985136350834385830000013394962230761810875_);" d="M1021.1,650.6
						c-2.3-6.4-6.7-10.6-12.5-13.6c-7.4-3.9-15.5-5.6-23.7-6.8c-5.3-0.8-10.6-1.5-16.4-1.5c0.8,1.5,1.4,2.7,2,3.9
						c3.9,8.2,2.1,18.3-4.1,24.9c-1.8,1.9-3.6,2.5-5.8,2.5c-0.8,0-1.7-0.1-2.7-0.2c1-0.5,1.5-0.8,2.1-1.1
						c7.2-4.3,11.1-12.6,9.3-20.5c-2.1-9.6-10.2-15.4-18.9-15.4c-3.9,0-7.9,1.2-11.5,3.8c-1.3,0.9-2.7,1.6-4.3,1.8
						c-9.4,1.3-16.8,8.1-18.8,17.4c-1.3,6.3-2.3,12.6-3.6,18.9c-1,5-2.7,9.5-6.1,12.7l0,0c-6.5,4.5-10.4,3.8-13.4,3.5
						c-7.6-0.7-7-8.8-7-8.8c-2.2,1.7-4,0-4,0c4.2,17.9,16.9,16.6,23.8,15.2c1.2-0.2,2.3-0.5,3.1-0.6c0,0,0,0,0,0
						c0.2-0.1,0.5-0.1,0.7-0.2c2-0.6,4-1.3,6-2.2c6.4-2.9,11.5-7.3,15.6-12.9c1-1.4,2-2.1,3-2.1c0.9,0,1.9,0.6,3,1.7
						c0.5,0.5,0.9,1,1.3,1.5c4.7,6.6,8,14.1,11.5,21.4c0.7,1.4,1.4,2,2.9,2h0.1c2.4,0,4.9-0.1,7.3-0.1c2.3,0,4.6,0,6.8,0.1h0.2
						c2.1,0,6,0,7.4,0c0.1,0,0.1,0,0.2,0c1.8-0.1,3.6-0.1,5.4-0.1c1.6,0,3.3,0,4.9,0.1c0.1,0,0.2,0,0.2,0c1.6,0,2.3-0.8,2.8-2.3
						c1.2-3.8,2.7-7.5,3.8-11.3c0.6-1.9,1.9-2.4,4-2.7c-0.4,1.3-0.7,2.2-1.1,3.1c-1.3,3.7-2.5,7.4-3.8,11c-0.5,1.4-0.4,2,1.2,2h0.1
						c2.6,0,5.3,0,7.9,0c2.8,0,5.7,0,8.6,0h0c1.2,0,1.8-0.4,2.2-1.5c4.4-10.9,8-22,10.4-33.5
						C1021.9,659.1,1022.6,654.8,1021.1,650.6z M924.2,652.1L924.2,652.1c-1.4,0-2.3-0.8-2.3-2.2c0-1.3,0.9-2.1,2.2-2.1h0.1
						c1.2,0,2.1,0.6,2.1,2C926.3,651.2,925.6,652.1,924.2,652.1z"/>
				</g>
				<g>
					
						<linearGradient id="SVGID_00000022547844240775149150000011341002715483795380_" gradientUnits="userSpaceOnUse" x1="880.069" y1="655.0242" x2="1024.3059" y2="655.0242">
						<stop  offset="0" style="stop-color:#EE6C26"/>
						<stop  offset="0.2517" style="stop-color:#EE7B32"/>
						<stop  offset="0.7667" style="stop-color:#EF9F56"/>
						<stop  offset="1" style="stop-color:#EFB26A"/>
					</linearGradient>
					<path style="fill:url(#SVGID_00000022547844240775149150000011341002715483795380_);" d="M1036.9,655
						C1036.9,655,1036.9,655,1036.9,655C1036.9,655,1036.9,655,1036.9,655L1036.9,655L1036.9,655z"/>
				</g>
			</g>
			<g>
				
					<linearGradient id="SVGID_00000016786729108369063740000013011385062202178751_" gradientUnits="userSpaceOnUse" x1="880.069" y1="686.5155" x2="1024.3058" y2="686.5155">
					<stop  offset="0" style="stop-color:#EE6C26"/>
					<stop  offset="0.2517" style="stop-color:#EE7B32"/>
					<stop  offset="0.7667" style="stop-color:#EF9F56"/>
					<stop  offset="1" style="stop-color:#EFB26A"/>
				</linearGradient>
				<path style="fill:url(#SVGID_00000016786729108369063740000013011385062202178751_);" d="M938,677.1c-0.2,0-0.4,0.1-0.6,0.1
					c-1.8,5.8-3.5,11.7-5.3,17.5c-0.3,0.9,0.4,1.2,1.1,1.2c4.2,0,8.4,0,12.6,0c1,0,1.5-0.3,1-1.4C943.9,688.7,940.9,682.9,938,677.1
					L938,677.1z"/>
			</g>
			<g>
				
					<linearGradient id="SVGID_00000170963107170527824380000016023731283064193668_" gradientUnits="userSpaceOnUse" x1="880.0688" y1="685.608" x2="1024.3051" y2="685.608">
					<stop  offset="0" style="stop-color:#EE6C26"/>
					<stop  offset="0.2517" style="stop-color:#EE7B32"/>
					<stop  offset="0.7667" style="stop-color:#EF9F56"/>
					<stop  offset="1" style="stop-color:#EFB26A"/>
				</linearGradient>
				<path style="fill:url(#SVGID_00000170963107170527824380000016023731283064193668_);" d="M1021.4,675.3
					c-2.7,6.4-4.6,12.9-7.2,19.2c-0.4,1.1,0,1.4,1,1.4c2.9,0,5.9,0,8.8,0c0,0,0,0,0,0c1,0,1.4-0.4,1.2-1.4
					C1023.9,688.1,1022.6,681.7,1021.4,675.3L1021.4,675.3z"/>
			</g>
			<g>
				
					<linearGradient id="SVGID_00000168830419212054021730000012391500659573256631_" gradientUnits="userSpaceOnUse" x1="880.069" y1="654.9357" x2="1024.3059" y2="654.9357">
					<stop  offset="0" style="stop-color:#EE6C26"/>
					<stop  offset="0.2517" style="stop-color:#EE7B32"/>
					<stop  offset="0.7667" style="stop-color:#EF9F56"/>
					<stop  offset="1" style="stop-color:#EFB26A"/>
				</linearGradient>
				<path style="fill:url(#SVGID_00000168830419212054021730000012391500659573256631_);" d="M1037,654.8L1037,654.8L1037,654.8z
					 M1037,654.8c0,0.1-0.1,0.1-0.1,0.2c0,0,0,0,0,0C1037,655,1037,654.9,1037,654.8L1037,654.8z"/>
			</g>
		</g>
		<g style="clip-path:url(#SVGID_00000178888379028083003900000016193583359952601505_);">
			<g>
				<g>
					
						<linearGradient id="SVGID_00000138536616638093860390000007422089814870358163_" gradientUnits="userSpaceOnUse" x1="808.9814" y1="686.7756" x2="953.2176" y2="686.7756" gradientTransform="matrix(-1 0 0 1 2297.2322 0)">
						<stop  offset="0" style="stop-color:#EE6C26"/>
						<stop  offset="0.2517" style="stop-color:#EE7B32"/>
						<stop  offset="0.7667" style="stop-color:#EF9F56"/>
						<stop  offset="1" style="stop-color:#EFB26A"/>
					</linearGradient>
					<path style="fill:url(#SVGID_00000138536616638093860390000007422089814870358163_);" d="M1459.8,686.5c1,0.3,2,0.5,3.1,0.6
						C1461.6,686.8,1460.6,686.6,1459.8,686.5z"/>
					
						<linearGradient id="SVGID_00000080180074183150567770000011633948474412857733_" gradientUnits="userSpaceOnUse" x1="808.9813" y1="659.174" x2="953.2182" y2="659.174" gradientTransform="matrix(-1 0 0 1 2297.2322 0)">
						<stop  offset="0" style="stop-color:#EE6C26"/>
						<stop  offset="0.2517" style="stop-color:#EE7B32"/>
						<stop  offset="0.7667" style="stop-color:#EF9F56"/>
						<stop  offset="1" style="stop-color:#EFB26A"/>
					</linearGradient>
					<path style="fill:url(#SVGID_00000080180074183150567770000011633948474412857733_);" d="M1346.7,660.6
						c2.4,11.5,6.1,22.6,10.4,33.5c0.5,1.1,1.1,1.5,2.2,1.5h0c2.8,0,5.7,0,8.6,0c2.6,0,5.3,0,7.9,0h0.1c1.6,0,1.7-0.7,1.2-2
						c-1.3-3.6-2.5-7.3-3.8-11c-0.3-0.9-0.6-1.9-1.1-3.1c2.1,0.2,3.4,0.7,4,2.7c1.2,3.8,2.6,7.5,3.8,11.3c0.5,1.5,1.2,2.3,2.8,2.3
						c0.1,0,0.2,0,0.2,0c1.6-0.1,3.3-0.1,4.9-0.1c1.8,0,3.6,0,5.4,0.1c0.1,0,0.1,0,0.2,0c1.5,0,5.4,0,7.4,0h0.2
						c2.3-0.1,4.6-0.1,6.8-0.1c2.4,0,4.9,0,7.3,0.1h0.1c1.5,0,2.2-0.6,2.9-2c3.5-7.3,6.8-14.7,11.5-21.4c0.4-0.5,0.8-1.1,1.3-1.5
						c1.1-1.1,2.1-1.7,3-1.7c1,0,1.9,0.7,3,2.1c4.1,5.6,9.3,10,15.6,12.9c1.9,0.9,3.9,1.6,6,2.2c0.2,0.1,0.5,0.1,0.7,0.2
						c0,0,0,0,0,0c0.8,0.1,1.8,0.4,3.1,0.6c6.9,1.3,19.6,2.7,23.8-15.2c0,0-1.8,1.7-4,0c0,0,0.6,8-7,8.8c-3,0.3-6.8,1-13.4-3.5l0,0
						c-3.4-3.2-5.1-7.7-6.1-12.7c-1.3-6.3-2.2-12.6-3.6-18.9c-2-9.3-9.4-16.1-18.8-17.4c-1.7-0.2-3-0.8-4.3-1.8
						c-3.6-2.6-7.6-3.8-11.5-3.8c-8.6,0-16.8,5.8-18.9,15.4c-1.7,7.9,2.1,16.3,9.3,20.5c0.6,0.3,1.1,0.6,2.1,1.1
						c-1,0.1-1.8,0.2-2.7,0.2c-2.2,0-4.1-0.6-5.8-2.5c-6.2-6.6-8-16.8-4.1-24.9c0.6-1.2,1.2-2.4,2-3.9c-5.7,0.1-11.1,0.7-16.4,1.5
						c-8.2,1.2-16.3,3-23.7,6.8c-5.8,3-10.3,7.2-12.5,13.6C1345.7,654.8,1346.4,659.1,1346.7,660.6z M1442,649.8c0-1.4,0.9-2,2.1-2
						h0.1c1.3,0,2.2,0.8,2.2,2.1c0,1.3-0.9,2.2-2.2,2.2h-0.1C1442.7,652.1,1442,651.2,1442,649.8z"/>
				</g>
				<g>
					
						<linearGradient id="SVGID_00000021806487015856871680000006942603905653899700_" gradientUnits="userSpaceOnUse" x1="808.9813" y1="655.0242" x2="953.2181" y2="655.0242" gradientTransform="matrix(-1 0 0 1 2297.2322 0)">
						<stop  offset="0" style="stop-color:#EE6C26"/>
						<stop  offset="0.2517" style="stop-color:#EE7B32"/>
						<stop  offset="0.7667" style="stop-color:#EF9F56"/>
						<stop  offset="1" style="stop-color:#EFB26A"/>
					</linearGradient>
					<path style="fill:url(#SVGID_00000021806487015856871680000006942603905653899700_);" d="M1331.4,655
						C1331.4,655,1331.4,655,1331.4,655C1331.4,655,1331.4,655,1331.4,655L1331.4,655L1331.4,655z"/>
				</g>
			</g>
			<g>
				
					<linearGradient id="SVGID_00000085946068511112591620000017016719207040397237_" gradientUnits="userSpaceOnUse" x1="808.9813" y1="686.5155" x2="953.2181" y2="686.5155" gradientTransform="matrix(-1 0 0 1 2297.2322 0)">
					<stop  offset="0" style="stop-color:#EE6C26"/>
					<stop  offset="0.2517" style="stop-color:#EE7B32"/>
					<stop  offset="0.7667" style="stop-color:#EF9F56"/>
					<stop  offset="1" style="stop-color:#EFB26A"/>
				</linearGradient>
				<path style="fill:url(#SVGID_00000085946068511112591620000017016719207040397237_);" d="M1430.4,677.1c0.2,0,0.4,0.1,0.6,0.1
					c1.8,5.8,3.5,11.7,5.3,17.5c0.3,0.9-0.4,1.2-1.1,1.2c-4.2,0-8.4,0-12.6,0c-1,0-1.5-0.3-1-1.4
					C1424.5,688.7,1427.4,682.9,1430.4,677.1L1430.4,677.1z"/>
			</g>
			<g>
				
					<linearGradient id="SVGID_00000168812003427726219790000015541133793620472986_" gradientUnits="userSpaceOnUse" x1="808.9811" y1="685.608" x2="953.2173" y2="685.608" gradientTransform="matrix(-1 0 0 1 2297.2322 0)">
					<stop  offset="0" style="stop-color:#EE6C26"/>
					<stop  offset="0.2517" style="stop-color:#EE7B32"/>
					<stop  offset="0.7667" style="stop-color:#EF9F56"/>
					<stop  offset="1" style="stop-color:#EFB26A"/>
				</linearGradient>
				<path style="fill:url(#SVGID_00000168812003427726219790000015541133793620472986_);" d="M1346.9,675.3
					c2.7,6.4,4.6,12.9,7.2,19.2c0.4,1.1,0,1.4-1,1.4c-2.9,0-5.9,0-8.8,0c0,0,0,0,0,0c-1,0-1.4-0.4-1.2-1.4
					C1344.4,688.1,1345.7,681.7,1346.9,675.3L1346.9,675.3z"/>
			</g>
			<g>
				
					<linearGradient id="SVGID_00000131335772117329885310000008843818876753902998_" gradientUnits="userSpaceOnUse" x1="808.9813" y1="654.9357" x2="953.2181" y2="654.9357" gradientTransform="matrix(-1 0 0 1 2297.2322 0)">
					<stop  offset="0" style="stop-color:#EE6C26"/>
					<stop  offset="0.2517" style="stop-color:#EE7B32"/>
					<stop  offset="0.7667" style="stop-color:#EF9F56"/>
					<stop  offset="1" style="stop-color:#EFB26A"/>
				</linearGradient>
				<path style="fill:url(#SVGID_00000131335772117329885310000008843818876753902998_);" d="M1331.3,654.8L1331.3,654.8
					L1331.3,654.8z M1331.3,654.8c0,0.1,0,0.1,0.1,0.2c0,0,0,0,0,0C1331.4,655,1331.3,654.9,1331.3,654.8L1331.3,654.8z"/>
			</g>
		</g>
	</g>
	<g>
		
			<rect x="604.3" y="20.9" transform="matrix(0.7071 -0.7071 0.7071 0.7071 141.3647 483.7794)" class="st16" width="100.8" height="100.8"/>
		
			<rect x="292.8" y="132.6" transform="matrix(0.7071 -0.7071 0.7071 0.7071 -12.802 334.9514)" class="st17" width="210.2" height="100.8"/>
		
			<rect x="340" y="203.3" transform="matrix(0.7071 0.7071 -0.7071 0.7071 339.3078 -311.8574)" class="st17" width="412.3" height="100.8"/>
		
			<rect x="575.7" y="240" transform="matrix(0.7071 -0.7071 0.7071 0.7071 8.4363 601.1336)" class="st17" width="308.4" height="100.8"/>
		<g>
			
				<rect x="-54" y="588.1" transform="matrix(0.7071 -0.7071 0.7071 0.7071 -377.662 365.1665)" class="st16" width="611.9" height="100.8"/>
			
				<rect x="359.7" y="632.5" transform="matrix(0.7071 -0.7071 0.7071 0.7071 -332.666 562.5961)" class="st16" width="306.2" height="100.8"/>
			
				<rect x="350.9" y="483.6" transform="matrix(0.7071 0.7071 -0.7071 0.7071 526.7281 -203.6257)" class="st16" width="316.5" height="100.8"/>
		</g>
	</g>
	<g>
		<g>
			<path class="st18" d="M851.1,708.9h10.5c9.5,0,14.3,2.3,14.3,9.3c0,5.3-2.8,8.6-8.6,9.9c4.3,1.2,6.6,4.3,6.6,8.6
				c0,3.8-1.6,7.3-4.5,9.7c-3.1,2.5-6.8,3.1-11.9,3.1h-12.7L851.1,708.9z M858.6,741c2.6,0,4.1-1.8,4.1-5.2c0-2.5-1.2-3.8-3.8-3.8
				h-0.3l-1.3,8.9C857.8,741,858.2,741,858.6,741z M861,724.6c2.5,0,4.1-1.5,4.1-4c0-2-1.2-3.1-3.5-3.1c-0.2,0-0.5,0.1-0.7,0.1
				l-1.1,7C860.1,724.6,860.6,724.6,861,724.6z"/>
			<path class="st18" d="M882.1,708.9h20.1l-1.5,9.8h-8.7l-0.9,5.2h7.9l-1.5,9.5h-7.9l-0.9,5.6h8.7l-1.6,10.5h-20.1L882.1,708.9z"/>
			<path class="st18" d="M906.9,708.9h10.5l3.6,21.8l3.8-21.8h9.5l-6.4,40.5h-10.4l-3.9-21l-3.6,21h-9.7L906.9,708.9z"/>
			<path class="st18" d="M965.2,726c-0.6,16.3-6.1,24.2-17.3,24.2c-8.5,0-13.2-5.3-13.2-15.4c0-8.2,2.2-15.5,5.3-20.2
				c2.9-4.3,7.3-6.5,13.1-6.5c7.2,0,11.7,3.5,12.9,9.6l-10.4,3.9c-0.6-2.4-1.4-3.5-3.1-3.5c-1.8,0-3,1.2-3.9,3.8
				c-1.2,3.5-2.4,10.1-2.4,14.2c0,3.1,0.7,4.3,2.8,4.3c2.5,0,4.1-2.2,4.4-6.3h-3.9l1.1-8H965.2z"/>
			<path class="st18" d="M977,708.9h13.3l2.8,40.5h-11.4l0.1-6h-6.7l-1.8,6h-11.6L977,708.9z M982,735.2l0.1-15l-4.7,15H982z"/>
			<path class="st18" d="M1001,708.9h11.4l-4.8,30.5h8.3l-1.6,10.1h-19.7L1001,708.9z"/>
			<path class="st18" d="M1022.5,708.9h11.4l-4.3,27.1c-0.1,0.6-0.1,1-0.1,1.2c0,1.4,0.9,2.2,2.2,2.2c1.8,0,2.8-1.2,3.1-3.5
				l4.3-27.1h11.3l-4.1,26c-0.7,4.1-1.2,7.7-3.7,10.7c-2.6,3.1-6.6,4.7-12,4.7c-8.5,0-12.6-3.5-12.6-10.9c0-1.4,0.2-2.9,0.4-4.5
				L1022.5,708.9z"/>
			<path class="st18" d="M1055.3,708.9h9.5c10.3,0,15.8,1.8,15.8,10.4c0,6.6-3,11-8.4,12.4l5,17.7h-12l-2.6-16.4l-2.6,16.4h-11.3
				L1055.3,708.9z M1064.4,726.9c3.5,0,5.3-2.3,5.3-6.3c0-2.4-1.2-3.4-3.6-3.4c-0.2,0-0.5,0.1-0.8,0.1l-1.5,9.7H1064.4z"/>
			<path class="st18" d="M1085.7,708.9h11.4l-4.3,27.1c-0.1,0.6-0.1,1-0.1,1.2c0,1.4,0.9,2.2,2.2,2.2c1.8,0,2.8-1.2,3.1-3.5
				l4.3-27.1h11.3l-4.1,26c-0.7,4.1-1.2,7.7-3.7,10.7c-2.6,3.1-6.6,4.7-12,4.7c-8.5,0-12.6-3.5-12.6-10.9c0-1.4,0.2-2.9,0.4-4.5
				L1085.7,708.9z"/>
			<path class="st18" d="M1113.5,738.9h10.6l-10.6,19.9h-6L1113.5,738.9z"/>
			<path class="st18" d="M1147.5,708.9h11.3l-2.7,16.9l8.9-16.9h11.5l-11.2,18.7l5.1,21.8h-12.3l-2.8-18.4l-3,18.4H1141
				L1147.5,708.9z"/>
			<path class="st18" d="M1185.6,708.9h13.3l2.8,40.5h-11.4l0.1-6h-6.7l-1.8,6h-11.6L1185.6,708.9z M1190.6,735.2l0.1-15l-4.7,15
				H1190.6z"/>
			<path class="st18" d="M1209.6,708.9h9.5c10.3,0,15.8,1.8,15.8,10.4c0,6.6-3,11-8.4,12.4l5,17.7h-12l-2.6-16.4l-2.6,16.4h-11.3
				L1209.6,708.9z M1218.7,726.9c3.5,0,5.3-2.3,5.3-6.3c0-2.4-1.2-3.4-3.6-3.4c-0.2,0-0.5,0.1-0.8,0.1l-1.5,9.7H1218.7z"/>
			<path class="st18" d="M1240.8,708.9h10.5l3.6,21.8l3.8-21.8h9.5l-6.4,40.5h-10.4l-3.9-21l-3.6,21h-9.7L1240.8,708.9z"/>
			<path class="st18" d="M1278.8,708.9h13.3l2.8,40.5h-11.4l0.1-6h-6.7l-1.8,6h-11.6L1278.8,708.9z M1283.9,735.2l0.1-15l-4.7,15
				H1283.9z"/>
			<path class="st18" d="M1299.3,749.4l4.8-30.2h-6.8l1.6-10.3h24.8l-1.6,10.3h-6.7l-4.8,30.2H1299.3z"/>
			<path class="st18" d="M1330.8,708.9h13.3l2.8,40.5h-11.4l0.1-6h-6.7l-1.8,6h-11.6L1330.8,708.9z M1335.8,735.2l0.1-15l-4.7,15
				H1335.8z"/>
			<path class="st18" d="M1354.8,708.9h11.3l-2.7,16.9l8.9-16.9h11.5l-11.2,18.7l5.1,21.8h-12.3l-2.8-18.4l-3,18.4h-11.3
				L1354.8,708.9z"/>
			<path class="st18" d="M1393,708.9h13.3l2.8,40.5h-11.4l0.1-6h-6.7l-1.8,6h-11.6L1393,708.9z M1398,735.2l0.1-15l-4.7,15H1398z"/>
			<path class="st18" d="M1443.3,718.9c0-1.6-0.9-2.4-2.4-2.4c-2.1,0-3.6,2.6-3.6,7.3h-9.5c0.4-10.3,5.3-15.7,14.1-15.7
				c7.9,0,12.3,3.8,12.3,10.1c0,5.6-4.3,12.3-12.3,21.6h8.2l-1.5,9.6h-25.7C1436.2,733.8,1443.3,723.9,1443.3,718.9z"/>
			<path class="st18" d="M1454.4,736.1c0-9,2.7-17.8,6.3-22.6c2.6-3.5,6.2-5.4,9.8-5.4c6.8,0,10.7,4.9,10.7,14.3
				c0,9-2.7,17.4-6.4,22.4c-2.6,3.5-6.2,5.4-9.8,5.4C1458.4,750.3,1454.4,745.3,1454.4,736.1z M1465.8,740.9c1.2,0,2.2-1.7,3.2-5.2
				c1.8-6.1,2.5-12.2,2.5-15.1c0-2-0.6-3.1-1.6-3.1c-1.3,0-2.2,1.7-3.2,5.2c-1.9,6.5-2.5,12.4-2.5,15.1
				C1464.2,739.9,1464.7,740.9,1465.8,740.9z"/>
			<path class="st18" d="M1498.3,718.9c0-1.6-0.9-2.4-2.4-2.4c-2.1,0-3.6,2.6-3.6,7.3h-9.5c0.4-10.3,5.3-15.7,14.1-15.7
				c7.9,0,12.3,3.8,12.3,10.1c0,5.6-4.3,12.3-12.3,21.6h8.2l-1.5,9.6H1478C1491.2,733.8,1498.3,723.9,1498.3,718.9z"/>
			<path class="st18" d="M1517.1,718.3h-3.7l1.5-9.4h14.3l-6.4,40.5h-10.6L1517.1,718.3z"/>
		</g>
	</g>
	<g>
		<path class="st18" d="M933.6,73.2h52.3L973.5,148l41.3-74.8h53.3l-52,82.5l23.6,96.3H983l-13.1-81.3l-13.7,81.3h-52.3L933.6,73.2z
			"/>
		<path class="st18" d="M1078.1,73.2h52.3l-10.8,64.7h21.5l10.5-64.7h52.3l-29.7,178.8H1122l11.6-70h-21.3l-11.6,70h-52.3
			L1078.1,73.2z"/>
		<path class="st18" d="M1225.5,73.2h92.8l-7.1,43.4h-40.5l-3.9,22.8h36.5l-6.8,41.9H1260l-4.2,24.6h40.5l-7.6,46.2h-92.8
			L1225.5,73.2z"/>
		<path class="st18" d="M1336.4,73.2h52.6l-22.3,134.5h38.4l-7.4,44.4h-90.9L1336.4,73.2z"/>
		<path class="st18" d="M1412.1,188.4c0-34.6,10.2-67.5,25-87.8C1452,80,1471.8,70,1497,70c35.2,0,58.9,24.6,58.9,67.2
			c0,34.6-10,67-25,87.8c-14.7,20.6-34.7,30.6-59.9,30.6C1436.3,255.6,1412.1,230,1412.1,188.4z M1476.5,211.7
			c7.6,0,12.6-5.8,16.8-17.6c5-14.3,9.5-38.6,9.5-60.7c0-13.3-3.4-19.6-11-19.6c-8.1,0-13.4,5.5-17.3,17.3
			c-5.3,15.3-9.7,40.1-9.7,61.2C1464.7,205.7,1468.1,211.7,1476.5,211.7z"/>
		<path class="st18" d="M900.1,282.6h52.3l-29.7,178.8h-52.3L900.1,282.6z"/>
		<path class="st18" d="M967.8,282.6h48.4l16.8,96.1l17.6-96.1h43.9l-29.4,178.8H1017l-17.9-92.6l-16.6,92.6h-44.7L967.8,282.6z"/>
		<path class="st18" d="M1114.2,282.6h39.7c49.7,0,73.1,21.3,73.1,68.2c0,38.1-14.2,73.7-31.5,90.6c-19.4,18.8-41.8,20.1-71.5,20.1
			h-39.4L1114.2,282.6z M1147.3,417.6c6.3,0,12.1-3,15.8-7.8c4.7-6,13.1-31.9,13.1-60c0-15.3-4.7-22.3-16.6-23.1l-15.2,90.6
			C1145.5,417.6,1146.3,417.6,1147.3,417.6z"/>
		<path class="st18" d="M1253.5,282.6h52.3l-29.7,178.8h-52.3L1253.5,282.6z"/>
		<path class="st18" d="M1358.9,282.6h61.8l13.1,178.8h-52.8l0.3-26.3h-31l-8.1,26.3h-53.6L1358.9,282.6z M1382.2,399l0.5-66.2
			l-21.5,66.2H1382.2z"/>
	</g>
	<g>
		<g>
			<path class="st18" d="M871.7,480.6h18.8l-7.2,45c-0.2,1-0.2,1.7-0.2,2.1c0,2.3,1.4,3.7,3.7,3.7c3,0,4.6-2,5.2-5.7l7.2-45h18.8
				l-6.9,43.2c-1.1,6.9-2,12.7-6.1,17.7c-4.3,5.2-10.9,7.7-19.9,7.7c-14,0-20.8-5.7-20.8-18c0-2.4,0.3-4.8,0.7-7.4L871.7,480.6z"/>
			<path class="st18" d="M923.5,480.6h17.3l6,36.1l6.3-36.1h15.7l-10.6,67.2h-17.2l-6.4-34.8l-5.9,34.8h-16L923.5,480.6z"/>
			<path class="st18" d="M975.3,480.6H994l-10.6,67.2h-18.8L975.3,480.6z"/>
			<path class="st18" d="M1012.4,480.6l0.1,43.9l13.9-43.9h18.7l-26,67.2h-20.6l-4.7-67.2H1012.4z"/>
			<path class="st18" d="M1044.8,480.6h33.3l-2.5,16.3H1061l-1.4,8.6h13.1l-2.5,15.7h-13.1l-1.5,9.2h14.5l-2.7,17.3h-33.3
				L1044.8,480.6z"/>
			<path class="st18" d="M1082.4,480.6h15.8c17.1,0,26.2,2.9,26.2,17.2c0,11-4.9,18.3-13.9,20.5l8.3,29.4H1099l-4.2-27.1l-4.2,27.1
				h-18.8L1082.4,480.6z M1097.5,510.6c5.7,0,8.9-3.8,8.9-10.5c0-4-2-5.7-6-5.7c-0.4,0-0.8,0.1-1.3,0.1l-2.5,16H1097.5z"/>
			<path class="st18" d="M1134.6,532.7c3.8,0,6.1-2.3,6.1-5.7c0-3.8-2.5-6.7-6.7-10.6c-5.4-5.2-8.4-9.3-8.4-16
				c0-12.5,8.4-20.9,22.6-20.9c5.7,0,10.6,1.2,15.8,3.9l-2.6,16.4c-4.1-2.9-8-4.3-11.4-4.3c-3.2,0-5.1,1.8-5.1,4.5
				c0,3.2,2.6,5.5,6.2,9c5,4.9,8.6,9,8.6,17.3c0,14.1-9.2,23.2-24.9,23.2c-6.9,0-12.9-1.8-16.7-4.4l3.2-17.7
				C1125.9,530.9,1130.7,532.7,1134.6,532.7z"/>
			<path class="st18" d="M1169.9,480.6h18.8l-10.6,67.2h-18.8L1169.9,480.6z"/>
			<path class="st18" d="M1189.9,547.8l7.9-50.1h-11.2l2.7-17.1h41.2l-2.7,17.1h-11.1l-7.9,50.1H1189.9z"/>
			<path class="st18" d="M1248.9,480.6l1.9,20.6l8.3-20.6h19.8l-21.9,40.2l-4.2,27H1234l4.3-27l-9.2-40.2H1248.9z"/>
			<path class="st18" d="M1339.7,509c-1,27-10.2,40.1-28.6,40.1c-14.1,0-21.9-8.9-21.9-25.5c0-13.6,3.6-25.6,8.9-33.5
				c4.8-7.1,12.2-10.8,21.7-10.8c11.9,0,19.4,5.7,21.4,15.9l-17.2,6.4c-0.9-4.1-2.3-5.7-5.2-5.7s-5,2.1-6.5,6.2
				c-2.1,5.8-4,16.7-4,23.6c0,5.1,1.2,7.1,4.7,7.1c4.1,0,6.9-3.6,7.4-10.5h-6.4l1.8-13.3H1339.7z"/>
			<path class="st18" d="M1356.2,480.6h22.1l4.7,67.2h-18.9l0.1-9.9h-11.1l-2.9,9.9H1331L1356.2,480.6z M1364.6,524.4l0.2-24.9
				l-7.7,24.9H1364.6z"/>
			<path class="st18" d="M1397.4,547.8h-16.1l15.5-67.2h22l0.2,35.4l11.4-35.4h21.9l-5.7,67.2h-16.2l6.1-49.8l-15.9,49.8h-12.7
				l-0.8-49.9L1397.4,547.8z"/>
			<path class="st18" d="M1460.5,480.6h33.3l-2.5,16.3h-14.5l-1.4,8.6h13.1l-2.5,15.7h-13.1l-1.5,9.2h14.5l-2.7,17.3h-33.3
				L1460.5,480.6z"/>
			<path class="st18" d="M1502.2,532.7c3.8,0,6.1-2.3,6.1-5.7c0-3.8-2.5-6.7-6.7-10.6c-5.4-5.2-8.4-9.3-8.4-16
				c0-12.5,8.4-20.9,22.6-20.9c5.7,0,10.6,1.2,15.8,3.9l-2.6,16.4c-4.1-2.9-8-4.3-11.4-4.3c-3.2,0-5.1,1.8-5.1,4.5
				c0,3.2,2.6,5.5,6.2,9c5,4.9,8.6,9,8.6,17.3c0,14.1-9.2,23.2-24.9,23.2c-6.9,0-12.9-1.8-16.7-4.4l3.2-17.7
				C1493.4,530.9,1498.2,532.7,1502.2,532.7z"/>
		</g>
	</g>
</g>
<g>
</g>
<g>
</g>
<g>
</g>
<g>
</g>
<g>
</g>
<g>
</g>
</svg>
